<?xml version="1.0" standalone="no"?>
 <!DOCTYPE svg PUBLIC "-//W3C//DTD SVG 1.1//EN" 
 "http://www.w3.org/Graphics/SVG/1.1/DTD/svg11.dtd"> 
<svg
  xmlns:svg="http://www.w3.org/2000/svg"
  xmlns="http://www.w3.org/2000/svg"
  xmlns:xlink="http://www.w3.org/1999/xlink"
  version="1.1"
  width="21.000720cm" height="29.700220cm" viewBox="0 0 82680 116930">
<title>SVG Picture created as only pins-F_SilkS.svg date 2021/12/05 16:16:33 </title>
  <desc>Picture generated by PCBNEW </desc>
<g style="fill:#000000; fill-opacity:1;stroke:#000000; stroke-opacity:1;
stroke-linecap:round; stroke-linejoin:round;"
 transform="translate(0 0) scale(1 1)">
</g>
<g style="fill:#000000; fill-opacity:0.0; 
stroke:#000000; stroke-width:-0.000393701; stroke-opacity:1; 
stroke-linecap:round; stroke-linejoin:round;">
</g>
<g style="fill:#000000; fill-opacity:0.0; 
stroke:#000000; stroke-width:47.2441; stroke-opacity:1; 
stroke-linecap:round; stroke-linejoin:round;">
<path d="M71598 11574
L72548 11131
" />
<path d="M71598 11574
L73722 16127
" />
<path d="M73722 16127
L74671 15684
" />
<path d="M72548 11131
L74671 15684
" />
<path d="M72115 10204
L72336 10678
" />
<path d="M71640 10425
L72115 10204
" />
<path d="M63137 17170
L63137 16123
" />
<path d="M63137 17170
L68160 17170
" />
<path d="M68160 17170
L68160 16123
" />
<path d="M63137 16123
L68160 16123
" />
<path d="M62113 16123
L62637 16123
" />
<path d="M62113 16646
L62113 16123
" />
<path d="M63129 13217
L63129 12170
" />
<path d="M63129 13217
L68153 13217
" />
<path d="M68153 13217
L68153 12170
" />
<path d="M63129 12170
L68153 12170
" />
<path d="M62106 12170
L62629 12170
" />
<path d="M62106 12693
L62106 12170
" />
<path d="M60276 24723
L60276 23700
" />
<path d="M60276 24723
L70323 24723
" />
<path d="M70323 24723
L70323 22676
" />
<path d="M61300 22676
L70323 22676
" />
<path d="M61300 23700
L61300 22676
" />
<path d="M60276 23700
L61300 23700
" />
<path d="M60276 22676
L60800 22676
" />
<path d="M60276 23200
L60276 22676
" />
<path d="M60276 20323
L60276 19300
" />
<path d="M60276 20323
L70323 20323
" />
<path d="M70323 20323
L70323 18276
" />
<path d="M61300 18276
L70323 18276
" />
<path d="M61300 19300
L61300 18276
" />
<path d="M60276 19300
L61300 19300
" />
<path d="M60276 18276
L60800 18276
" />
<path d="M60276 18800
L60276 18276
" />
<path d="M68100 27276
L68100 28323
" />
<path d="M68100 27276
L61076 27276
" />
<path d="M61076 27276
L61076 28323
" />
<path d="M68100 28323
L61076 28323
" />
<path d="M69123 28323
L68600 28323
" />
<path d="M69123 27800
L69123 28323
" />
<path d="M58051 11231
L59001 11674
" />
<path d="M58051 11231
L55928 15784
" />
<path d="M55928 15784
L56877 16227
" />
<path d="M59001 11674
L56877 16227
" />
<path d="M59433 10746
L59212 11221
" />
<path d="M58959 10525
L59433 10746
" />
<path d="M63300 11123
L63300 10076
" />
<path d="M63300 11123
L68323 11123
" />
<path d="M68323 11123
L68323 10076
" />
<path d="M63300 10076
L68323 10076
" />
<path d="M62276 10076
L62800 10076
" />
<path d="M62276 10600
L62276 10076
" />
</g>
<g style="fill:#000000; fill-opacity:0.0; 
stroke:#000000; stroke-width:59.0551; stroke-opacity:1; 
stroke-linecap:round; stroke-linejoin:round;">
<g transform="rotate(-90 54543.3 29000)">
<text x="54543.3" y="29196.9"
textLength="787.404" font-size="524.934" lengthAdjust="spacingAndGlyphs"
text-anchor="middle" opacity="0">H1</text>
</g>
<path d="M54721 29299
L54327 29299
" />
<path d="M54515 29299
L54515 29074
" />
<path d="M54721 29074
L54327 29074
" />
<path d="M54721 28681
L54721 28906
" />
<path d="M54721 28793
L54327 28793
L54383 28831
L54421 28868
L54440 28906
" />
<g transform="rotate(-90 -92224.6 929.921)">
<text x="-92224.6" y="1126.77"
textLength="864.173" font-size="524.934" lengthAdjust="spacingAndGlyphs"
text-anchor="middle" opacity="0">H9</text>
</g>
<path d="M-92046 1229
L-92440 1229
" />
<path d="M-92252 1229
L-92252 1004
" />
<path d="M-92046 1004
L-92440 1004
" />
<path d="M-92046 798
L-92046 723
L-92065 686
L-92083 667
L-92140 629
L-92215 611
L-92365 611
L-92402 629
L-92421 648
L-92440 686
L-92440 761
L-92421 798
L-92402 817
L-92365 836
L-92271 836
L-92233 817
L-92215 798
L-92196 761
L-92196 686
L-92215 648
L-92233 629
L-92271 611
" />
<g transform="rotate(-90 -62828.3 26059.8)">
<text x="-62828.3" y="26256.7"
textLength="864.173" font-size="524.934" lengthAdjust="spacingAndGlyphs"
text-anchor="middle" opacity="0">H7</text>
</g>
<path d="M-62650 26359
L-63043 26359
" />
<path d="M-62856 26359
L-62856 26134
" />
<path d="M-62650 26134
L-63043 26134
" />
<path d="M-63043 25984
L-63043 25722
L-62650 25891
" />
<text x="-81800" y="50940.2"
textLength="1239.13" font-size="524.934" lengthAdjust="spacingAndGlyphs"
text-anchor="middle" opacity="0">H12</text>
<path d="M-82287 50921
L-82287 50527
" />
<path d="M-82287 50715
L-82062 50715
" />
<path d="M-82062 50921
L-82062 50527
" />
<path d="M-81668 50921
L-81893 50921
" />
<path d="M-81781 50921
L-81781 50527
L-81818 50583
L-81856 50621
L-81893 50640
" />
<path d="M-81518 50565
L-81500 50546
L-81462 50527
L-81368 50527
L-81331 50546
L-81312 50565
L-81293 50602
L-81293 50640
L-81312 50696
L-81537 50921
L-81293 50921
" />
<g transform="rotate(-90 -92224.6 -4975.59)">
<text x="-92224.6" y="-4778.74"
textLength="1239.13" font-size="524.934" lengthAdjust="spacingAndGlyphs"
text-anchor="middle" opacity="0">H10</text>
</g>
<path d="M-92046 -4488
L-92440 -4488
" />
<path d="M-92252 -4488
L-92252 -4713
" />
<path d="M-92046 -4713
L-92440 -4713
" />
<path d="M-92046 -5106
L-92046 -4881
" />
<path d="M-92046 -4994
L-92440 -4994
L-92383 -4956
L-92346 -4919
L-92327 -4881
" />
<path d="M-92440 -5350
L-92440 -5388
L-92421 -5425
L-92402 -5444
L-92365 -5463
L-92290 -5481
L-92196 -5481
L-92121 -5463
L-92083 -5444
L-92065 -5425
L-92046 -5388
L-92046 -5350
L-92065 -5313
L-92083 -5294
L-92121 -5275
L-92196 -5256
L-92290 -5256
L-92365 -5275
L-92402 -5294
L-92421 -5313
L-92440 -5350
" />
<g transform="rotate(-90 -89600 26059.8)">
<text x="-89600" y="26256.7"
textLength="864.173" font-size="524.934" lengthAdjust="spacingAndGlyphs"
text-anchor="middle" opacity="0">H6</text>
</g>
<path d="M-89421 26359
L-89815 26359
" />
<path d="M-89628 26359
L-89628 26134
" />
<path d="M-89421 26134
L-89815 26134
" />
<path d="M-89815 25778
L-89815 25853
L-89796 25891
L-89778 25909
L-89721 25947
L-89646 25966
L-89496 25966
L-89459 25947
L-89440 25928
L-89421 25891
L-89421 25816
L-89440 25778
L-89459 25759
L-89496 25741
L-89590 25741
L-89628 25759
L-89646 25778
L-89665 25816
L-89665 25891
L-89646 25928
L-89628 25947
L-89590 25966
" />
<text x="-67233.1" y="50940.2"
textLength="1239.13" font-size="524.934" lengthAdjust="spacingAndGlyphs"
text-anchor="middle" opacity="0">H11</text>
<path d="M-67720 50921
L-67720 50527
" />
<path d="M-67720 50715
L-67495 50715
" />
<path d="M-67495 50921
L-67495 50527
" />
<path d="M-67101 50921
L-67326 50921
" />
<path d="M-67214 50921
L-67214 50527
L-67251 50583
L-67289 50621
L-67326 50640
" />
<path d="M-66726 50921
L-66951 50921
" />
<path d="M-66839 50921
L-66839 50527
L-66876 50583
L-66914 50621
L-66951 50640
" />
<g transform="rotate(-90 -62828.3 48400)">
<text x="-62828.3" y="48596.9"
textLength="864.173" font-size="524.934" lengthAdjust="spacingAndGlyphs"
text-anchor="middle" opacity="0">H8</text>
</g>
<path d="M-62650 48699
L-63043 48699
" />
<path d="M-62856 48699
L-62856 48474
" />
<path d="M-62650 48474
L-63043 48474
" />
<path d="M-62875 48231
L-62893 48268
L-62912 48287
L-62950 48306
L-62968 48306
L-63006 48287
L-63025 48268
L-63043 48231
L-63043 48156
L-63025 48118
L-63006 48100
L-62968 48081
L-62950 48081
L-62912 48100
L-62893 48118
L-62875 48156
L-62875 48231
L-62856 48268
L-62837 48287
L-62800 48306
L-62725 48306
L-62687 48287
L-62668 48268
L-62650 48231
L-62650 48156
L-62668 48118
L-62687 48100
L-62725 48081
L-62800 48081
L-62837 48100
L-62856 48118
L-62875 48156
" />
<g transform="rotate(-90 54543.3 9400)">
<text x="54543.3" y="9596.85"
textLength="864.173" font-size="524.934" lengthAdjust="spacingAndGlyphs"
text-anchor="middle" opacity="0">H3</text>
</g>
<path d="M54721 9699
L54327 9699
" />
<path d="M54515 9699
L54515 9474
" />
<path d="M54721 9474
L54327 9474
" />
<path d="M54327 9325
L54327 9081
L54477 9212
L54477 9156
L54496 9118
L54515 9100
L54552 9081
L54646 9081
L54683 9100
L54702 9118
L54721 9156
L54721 9268
L54702 9306
L54683 9325
" />
<g transform="rotate(-90 -89600 48400)">
<text x="-89600" y="48596.9"
textLength="864.173" font-size="524.934" lengthAdjust="spacingAndGlyphs"
text-anchor="middle" opacity="0">H5</text>
</g>
<path d="M-89421 48699
L-89815 48699
" />
<path d="M-89628 48699
L-89628 48474
" />
<path d="M-89421 48474
L-89815 48474
" />
<path d="M-89815 48100
L-89815 48287
L-89628 48306
L-89646 48287
L-89665 48250
L-89665 48156
L-89646 48118
L-89628 48100
L-89590 48081
L-89496 48081
L-89459 48100
L-89440 48118
L-89421 48156
L-89421 48250
L-89440 48287
L-89459 48306
" />
<text x="-81800" y="65507.1"
textLength="1239.13" font-size="524.934" lengthAdjust="spacingAndGlyphs"
text-anchor="middle" opacity="0">H14</text>
<path d="M-82287 65488
L-82287 65094
" />
<path d="M-82287 65282
L-82062 65282
" />
<path d="M-82062 65488
L-82062 65094
" />
<path d="M-81668 65488
L-81893 65488
" />
<path d="M-81781 65488
L-81781 65094
L-81818 65150
L-81856 65188
L-81893 65207
" />
<path d="M-81331 65225
L-81331 65488
" />
<path d="M-81425 65075
L-81518 65357
L-81275 65357
" />
<text x="-67233.1" y="65507.1"
textLength="1239.13" font-size="524.934" lengthAdjust="spacingAndGlyphs"
text-anchor="middle" opacity="0">H13</text>
<path d="M-67720 65488
L-67720 65094
" />
<path d="M-67720 65282
L-67495 65282
" />
<path d="M-67495 65488
L-67495 65094
" />
<path d="M-67101 65488
L-67326 65488
" />
<path d="M-67214 65488
L-67214 65094
L-67251 65150
L-67289 65188
L-67326 65207
" />
<path d="M-66970 65094
L-66726 65094
L-66858 65244
L-66801 65244
L-66764 65263
L-66745 65282
L-66726 65319
L-66726 65413
L-66745 65450
L-66764 65469
L-66801 65488
L-66914 65488
L-66951 65469
L-66970 65450
" />
<text x="-95400" y="62426.8"
textLength="1239.13" font-size="524.934" lengthAdjust="spacingAndGlyphs"
text-anchor="middle" opacity="0">H16</text>
<path d="M-95887 62408
L-95887 62014
" />
<path d="M-95887 62201
L-95662 62201
" />
<path d="M-95662 62408
L-95662 62014
" />
<path d="M-95268 62408
L-95493 62408
" />
<path d="M-95381 62408
L-95381 62014
L-95418 62070
L-95456 62108
L-95493 62126
" />
<path d="M-94931 62014
L-95006 62014
L-95043 62033
L-95062 62051
L-95100 62108
L-95118 62183
L-95118 62333
L-95100 62370
L-95081 62389
L-95043 62408
L-94968 62408
L-94931 62389
L-94912 62370
L-94893 62333
L-94893 62239
L-94912 62201
L-94931 62183
L-94968 62164
L-95043 62164
L-95081 62183
L-95100 62201
L-95118 62239
" />
<text x="-53925.2" y="62426.8"
textLength="1239.13" font-size="524.934" lengthAdjust="spacingAndGlyphs"
text-anchor="middle" opacity="0">H18</text>
<path d="M-54412 62408
L-54412 62014
" />
<path d="M-54412 62201
L-54187 62201
" />
<path d="M-54187 62408
L-54187 62014
" />
<path d="M-53793 62408
L-54018 62408
" />
<path d="M-53906 62408
L-53906 62014
L-53943 62070
L-53981 62108
L-54018 62126
" />
<path d="M-53568 62183
L-53606 62164
L-53625 62145
L-53643 62108
L-53643 62089
L-53625 62051
L-53606 62033
L-53568 62014
L-53494 62014
L-53456 62033
L-53437 62051
L-53419 62089
L-53419 62108
L-53437 62145
L-53456 62164
L-53494 62183
L-53568 62183
L-53606 62201
L-53625 62220
L-53643 62258
L-53643 62333
L-53625 62370
L-53606 62389
L-53568 62408
L-53494 62408
L-53456 62389
L-53437 62370
L-53419 62333
L-53419 62258
L-53437 62220
L-53456 62201
L-53494 62183
" />
<text x="74400" y="27940.2"
textLength="864.173" font-size="524.934" lengthAdjust="spacingAndGlyphs"
text-anchor="middle" opacity="0">H2</text>
<path d="M74100 27921
L74100 27527
" />
<path d="M74100 27715
L74325 27715
" />
<path d="M74325 27921
L74325 27527
" />
<path d="M74493 27565
L74512 27546
L74549 27527
L74643 27527
L74681 27546
L74699 27565
L74718 27602
L74718 27640
L74699 27696
L74474 27921
L74718 27921
" />
<g transform="rotate(-90 72943.3 9400)">
<text x="72943.3" y="9596.85"
textLength="864.173" font-size="524.934" lengthAdjust="spacingAndGlyphs"
text-anchor="middle" opacity="0">H4</text>
</g>
<path d="M73121 9699
L72727 9699
" />
<path d="M72915 9699
L72915 9474
" />
<path d="M73121 9474
L72727 9474
" />
<path d="M72858 9118
L73121 9118
" />
<path d="M72708 9212
L72990 9306
L72990 9062
" />
<g transform="rotate(-90 -55381.9 56600)">
<text x="-55381.9" y="56796.9"
textLength="1239.13" font-size="524.934" lengthAdjust="spacingAndGlyphs"
text-anchor="middle" opacity="0">H17</text>
</g>
<path d="M-55203 57087
L-55597 57087
" />
<path d="M-55410 57087
L-55410 56862
" />
<path d="M-55203 56862
L-55597 56862
" />
<path d="M-55203 56468
L-55203 56693
" />
<path d="M-55203 56581
L-55597 56581
L-55541 56618
L-55503 56656
L-55485 56693
" />
<path d="M-55597 56337
L-55597 56075
L-55203 56243
" />
<text x="-95400" y="55340.2"
textLength="1239.13" font-size="524.934" lengthAdjust="spacingAndGlyphs"
text-anchor="middle" opacity="0">H15</text>
<path d="M-95887 55321
L-95887 54927
" />
<path d="M-95887 55115
L-95662 55115
" />
<path d="M-95662 55321
L-95662 54927
" />
<path d="M-95268 55321
L-95493 55321
" />
<path d="M-95381 55321
L-95381 54927
L-95418 54983
L-95456 55021
L-95493 55040
" />
<path d="M-94912 54927
L-95100 54927
L-95118 55115
L-95100 55096
L-95062 55077
L-94968 55077
L-94931 55096
L-94912 55115
L-94893 55152
L-94893 55246
L-94912 55283
L-94931 55302
L-94968 55321
L-95062 55321
L-95100 55302
L-95118 55283
" />
<g transform="rotate(-25 71401.3 9911.62)">
<text x="71401.3" y="10108.5"
textLength="751.687" font-size="524.934" lengthAdjust="spacingAndGlyphs"
text-anchor="middle" opacity="0">J2</text>
</g>
<path d="M71191 9771
L71310 10026
L71316 10085
L71298 10135
L71255 10176
L71221 10191
" />
<path d="M71360 9734
L71369 9709
L71395 9676
L71480 9636
L71522 9638
L71546 9647
L71579 9673
L71595 9707
L71602 9766
L71493 10065
L71714 9962
" />
<g transform="rotate(-90 61546.5 16646.7)">
<text x="61546.5" y="16843.5"
textLength="1145.39" font-size="524.934" lengthAdjust="spacingAndGlyphs"
text-anchor="middle" opacity="0">JP1</text>
</g>
<path d="M61330 16974
L61612 16974
L61668 16993
L61705 17030
L61724 17087
L61724 17124
" />
<path d="M61724 16787
L61330 16787
L61330 16637
L61349 16599
L61368 16581
L61405 16562
L61462 16562
L61499 16581
L61518 16599
L61537 16637
L61537 16787
" />
<path d="M61724 16187
L61724 16412
" />
<path d="M61724 16299
L61330 16299
L61387 16337
L61424 16374
L61443 16412
" />
<g transform="rotate(-90 59087.4 21208.7)">
<text x="59087.4" y="21405.5"
textLength="751.687" font-size="524.934" lengthAdjust="spacingAndGlyphs"
text-anchor="middle" opacity="0">J4</text>
</g>
<path d="M58871 21339
L59153 21339
L59209 21358
L59246 21396
L59265 21452
L59265 21489
" />
<path d="M59003 20983
L59265 20983
" />
<path d="M58853 21077
L59134 21171
L59134 20927
" />
<g transform="rotate(-90 61539.4 12693.9)">
<text x="61539.4" y="12890.7"
textLength="1145.39" font-size="524.934" lengthAdjust="spacingAndGlyphs"
text-anchor="middle" opacity="0">JP2</text>
</g>
<path d="M61323 13021
L61604 13021
L61661 13040
L61698 13078
L61717 13134
L61717 13171
" />
<path d="M61717 12834
L61323 12834
L61323 12684
L61342 12647
L61361 12628
L61398 12609
L61455 12609
L61492 12628
L61511 12647
L61529 12684
L61529 12834
" />
<path d="M61361 12459
L61342 12440
L61323 12403
L61323 12309
L61342 12272
L61361 12253
L61398 12234
L61436 12234
L61492 12253
L61717 12478
L61717 12234
" />
<g transform="rotate(-90 59709.4 23700)">
<text x="59709.4" y="23896.9"
textLength="1839.05" font-size="524.934" lengthAdjust="spacingAndGlyphs"
text-anchor="middle" opacity="0">J3/J1</text>
</g>
<path d="M59493 24374
L59775 24374
L59831 24393
L59868 24431
L59887 24487
L59887 24524
" />
<path d="M59493 24224
L59493 23981
L59643 24112
L59643 24056
L59662 24018
L59681 23999
L59718 23981
L59812 23981
L59850 23999
L59868 24018
L59887 24056
L59887 24168
L59868 24206
L59850 24224
" />
<path d="M59475 23531
L59981 23868
" />
<path d="M59493 23287
L59775 23287
L59831 23306
L59868 23343
L59887 23400
L59887 23437
" />
<path d="M59887 22893
L59887 23118
" />
<path d="M59887 23006
L59493 23006
L59550 23043
L59587 23081
L59606 23118
" />
<g transform="rotate(-90 59709.4 19300)">
<text x="59709.4" y="19496.9"
textLength="1839.05" font-size="524.934" lengthAdjust="spacingAndGlyphs"
text-anchor="middle" opacity="0">J2/J4</text>
</g>
<path d="M59493 19974
L59775 19974
L59831 19993
L59868 20031
L59887 20087
L59887 20124
" />
<path d="M59531 19806
L59512 19787
L59493 19749
L59493 19656
L59512 19618
L59531 19599
L59568 19581
L59606 19581
L59662 19599
L59887 19824
L59887 19581
" />
<path d="M59475 19131
L59981 19468
" />
<path d="M59493 18887
L59775 18887
L59831 18906
L59868 18943
L59887 19000
L59887 19037
" />
<path d="M59625 18531
L59887 18531
" />
<path d="M59475 18625
L59756 18718
L59756 18475
" />
<g transform="rotate(-90 69690.6 27800)">
<text x="69690.6" y="27996.9"
textLength="751.687" font-size="524.934" lengthAdjust="spacingAndGlyphs"
text-anchor="middle" opacity="0">J5</text>
</g>
<path d="M69474 27931
L69756 27931
L69812 27949
L69849 27987
L69868 28043
L69868 28081
" />
<path d="M69474 27556
L69474 27743
L69662 27762
L69643 27743
L69624 27706
L69624 27612
L69643 27575
L69662 27556
L69699 27537
L69793 27537
L69831 27556
L69849 27575
L69868 27612
L69868 27706
L69849 27743
L69831 27762
" />
<g transform="rotate(25 59198.7 10011.6)">
<text x="59198.7" y="10208.5"
textLength="751.687" font-size="524.934" lengthAdjust="spacingAndGlyphs"
text-anchor="middle" opacity="0">J3</text>
</g>
<path d="M59170 9760
L59052 10015
L59011 10058
L58961 10076
L58902 10070
L58868 10054
" />
<path d="M59306 9824
L59527 9927
L59345 10007
L59396 10031
L59422 10064
L59431 10089
L59432 10131
L59392 10215
L59360 10242
L59335 10251
L59293 10252
L59191 10204
L59165 10171
L59156 10146
" />
<g transform="rotate(-90 61709.4 10600)">
<text x="61709.4" y="10796.9"
textLength="751.687" font-size="524.934" lengthAdjust="spacingAndGlyphs"
text-anchor="middle" opacity="0">J1</text>
</g>
<path d="M61493 10731
L61775 10731
L61831 10749
L61868 10787
L61887 10843
L61887 10881
" />
<path d="M61887 10337
L61887 10562
" />
<path d="M61887 10450
L61493 10450
L61550 10487
L61587 10525
L61606 10562
" />
<g >
</g>
</g> 
</svg>
