M48
; DRILL file {KiCad (5.1.9)-1} date 05/12/21 16:02:19
; FORMAT={-:-/ absolute / inch / decimal}
; #@! TF.CreationDate,2021-05-12T16:02:19+02:00
; #@! TF.GenerationSoftware,Kicad,Pcbnew,(5.1.9)-1
; #@! TF.FileFunction,Plated,1,2,PTH
FMAT,2
INCH
T1C0.0300
T2C0.0315
T3C0.0394
T4C0.0433
%
G90
G05
T1
X3.42Y-3.11
X3.42Y-4.21
X3.52Y-3.11
X3.52Y-4.21
X3.62Y-3.11
X3.62Y-4.21
X3.72Y-3.11
X3.72Y-4.21
X3.82Y-3.11
X3.82Y-4.21
X3.92Y-3.11
X3.92Y-4.21
X4.02Y-3.11
X4.02Y-4.21
X4.12Y-3.11
X4.12Y-4.21
X4.22Y-3.11
X4.22Y-4.21
X4.32Y-3.11
X4.32Y-4.21
X4.42Y-3.11
X4.42Y-4.21
X4.52Y-3.11
X4.52Y-4.21
X4.62Y-3.11
X4.62Y-4.21
X4.72Y-3.11
X4.72Y-4.21
X4.82Y-3.11
X4.82Y-4.21
T2
X2.8081Y-2.8519
X2.86Y-5.24
X3.9Y-2.7
X4.02Y-2.66
X4.12Y-2.68
X4.2569Y-2.6631
X4.32Y-2.96
X4.36Y-2.88
X4.5Y-2.72
X4.9Y-2.96
X5.12Y-5.24
T3
X1.9287Y-3.0332
X1.971Y-2.9425
X2.0132Y-2.8519
X2.0555Y-2.7613
X2.0977Y-2.6706
X2.14Y-2.58
X2.8Y-3.3
X2.8Y-3.4
X2.8Y-3.5
X2.8Y-3.6
X2.8Y-3.7
X2.8Y-3.8
X2.8Y-3.9
X2.8Y-4.0
X3.14Y-4.7671
X3.14Y-4.8671
X3.14Y-6.6569
X3.14Y-6.7569
X3.24Y-4.7671
X3.24Y-4.8671
X3.24Y-6.6569
X3.24Y-6.7569
X3.34Y-4.7671
X3.34Y-4.8671
X3.34Y-6.6569
X3.34Y-6.7569
X3.44Y-4.7671
X3.44Y-4.8671
X3.44Y-6.6569
X3.44Y-6.7569
X3.54Y-4.7671
X3.54Y-4.8671
X3.54Y-6.6569
X3.54Y-6.7569
X3.64Y-4.7671
X3.64Y-4.8671
X3.64Y-6.6569
X3.64Y-6.7569
X3.74Y-4.7671
X3.74Y-4.8671
X3.74Y-6.6569
X3.74Y-6.7569
X3.8231Y-2.44
X3.84Y-4.7671
X3.84Y-4.8671
X3.84Y-6.6569
X3.84Y-6.7569
X3.9231Y-2.44
X3.94Y-4.7671
X3.94Y-4.8671
X3.94Y-6.6569
X3.94Y-6.7569
X4.0231Y-2.44
X4.04Y-4.7671
X4.04Y-4.8671
X4.04Y-6.6569
X4.04Y-6.7569
X4.1231Y-2.44
X4.2231Y-2.44
X4.3231Y-2.44
X5.4184Y-3.4007
X5.4184Y-3.5007
X5.4184Y-3.6007
X5.4184Y-3.7007
X5.4184Y-3.8007
X5.4184Y-3.9007
X5.8137Y-3.4
X5.8137Y-3.5
X5.8137Y-3.6
X5.8137Y-3.7
X5.8137Y-3.8
X5.8137Y-3.9
X6.06Y-2.6
X6.1023Y-2.6906
X6.1445Y-2.7813
X6.1868Y-2.8719
X6.229Y-2.9625
X6.2713Y-3.0532
T4
X2.82Y-7.9983
X2.82Y-8.14
T0
M30
