%FSLAX45Y45*%
G04 Gerber Fmt 4.5, Leading zero omitted, Abs format (unit mm)*
G04 Created by KiCad (PCBNEW (5.1.9)-1) date 2021-05-12 16:02:21*
%MOMM*%
%LPD*%
G01*
G04 APERTURE LIST*
%TA.AperFunction,Profile*%
%ADD10C,0.050000*%
%TD*%
%ADD11C,0.200000*%
%ADD12C,0.300000*%
G04 APERTURE END LIST*
D10*
X4521200Y-22606000D02*
X5537200Y-22606000D01*
X4521200Y-22606000D02*
X4521200Y-7772400D01*
X6045200Y-22606000D02*
X5537200Y-22606000D01*
X16306800Y-22606000D02*
X6045200Y-22606000D01*
X16306800Y-5943600D02*
X16306800Y-22606000D01*
X16205200Y-5943600D02*
X16306800Y-5943600D01*
X4521200Y-5943600D02*
X16205200Y-5943600D01*
X4521200Y-6096000D02*
X4521200Y-5943600D01*
X4521200Y-7772400D02*
X4521200Y-6096000D01*
D11*
X8648700Y-7861300D02*
X8724900Y-7937500D01*
X8724900Y-7861300D02*
X8648700Y-7937500D01*
X8648700Y-10655300D02*
X8724900Y-10731500D01*
X8724900Y-10655300D02*
X8648700Y-10731500D01*
X8902700Y-7861300D02*
X8978900Y-7937500D01*
X8978900Y-7861300D02*
X8902700Y-7937500D01*
X8902700Y-10655300D02*
X8978900Y-10731500D01*
X8978900Y-10655300D02*
X8902700Y-10731500D01*
X9156700Y-7861300D02*
X9232900Y-7937500D01*
X9232900Y-7861300D02*
X9156700Y-7937500D01*
X9156700Y-10655300D02*
X9232900Y-10731500D01*
X9232900Y-10655300D02*
X9156700Y-10731500D01*
X9410700Y-7861300D02*
X9486900Y-7937500D01*
X9486900Y-7861300D02*
X9410700Y-7937500D01*
X9410700Y-10655300D02*
X9486900Y-10731500D01*
X9486900Y-10655300D02*
X9410700Y-10731500D01*
X9664700Y-7861300D02*
X9740900Y-7937500D01*
X9740900Y-7861300D02*
X9664700Y-7937500D01*
X9664700Y-10655300D02*
X9740900Y-10731500D01*
X9740900Y-10655300D02*
X9664700Y-10731500D01*
X9918700Y-7861300D02*
X9994900Y-7937500D01*
X9994900Y-7861300D02*
X9918700Y-7937500D01*
X9918700Y-10655300D02*
X9994900Y-10731500D01*
X9994900Y-10655300D02*
X9918700Y-10731500D01*
X10172700Y-7861300D02*
X10248900Y-7937500D01*
X10248900Y-7861300D02*
X10172700Y-7937500D01*
X10172700Y-10655300D02*
X10248900Y-10731500D01*
X10248900Y-10655300D02*
X10172700Y-10731500D01*
X10426700Y-7861300D02*
X10502900Y-7937500D01*
X10502900Y-7861300D02*
X10426700Y-7937500D01*
X10426700Y-10655300D02*
X10502900Y-10731500D01*
X10502900Y-10655300D02*
X10426700Y-10731500D01*
X10680700Y-7861300D02*
X10756900Y-7937500D01*
X10756900Y-7861300D02*
X10680700Y-7937500D01*
X10680700Y-10655300D02*
X10756900Y-10731500D01*
X10756900Y-10655300D02*
X10680700Y-10731500D01*
X10934700Y-7861300D02*
X11010900Y-7937500D01*
X11010900Y-7861300D02*
X10934700Y-7937500D01*
X10934700Y-10655300D02*
X11010900Y-10731500D01*
X11010900Y-10655300D02*
X10934700Y-10731500D01*
X11188700Y-7861300D02*
X11264900Y-7937500D01*
X11264900Y-7861300D02*
X11188700Y-7937500D01*
X11188700Y-10655300D02*
X11264900Y-10731500D01*
X11264900Y-10655300D02*
X11188700Y-10731500D01*
X11442700Y-7861300D02*
X11518900Y-7937500D01*
X11518900Y-7861300D02*
X11442700Y-7937500D01*
X11442700Y-10655300D02*
X11518900Y-10731500D01*
X11518900Y-10655300D02*
X11442700Y-10731500D01*
X11696700Y-7861300D02*
X11772900Y-7937500D01*
X11772900Y-7861300D02*
X11696700Y-7937500D01*
X11696700Y-10655300D02*
X11772900Y-10731500D01*
X11772900Y-10655300D02*
X11696700Y-10731500D01*
X11950700Y-7861300D02*
X12026900Y-7937500D01*
X12026900Y-7861300D02*
X11950700Y-7937500D01*
X11950700Y-10655300D02*
X12026900Y-10731500D01*
X12026900Y-10655300D02*
X11950700Y-10731500D01*
X12204700Y-7861300D02*
X12280900Y-7937500D01*
X12280900Y-7861300D02*
X12204700Y-7937500D01*
X12204700Y-10655300D02*
X12280900Y-10731500D01*
X12280900Y-10655300D02*
X12204700Y-10731500D01*
X7172593Y-7243806D02*
G75*
G03*
X7172593Y-7243806I-40000J0D01*
G01*
X7304400Y-13309600D02*
G75*
G03*
X7304400Y-13309600I-40000J0D01*
G01*
X9946000Y-6858000D02*
G75*
G03*
X9946000Y-6858000I-40000J0D01*
G01*
X10250800Y-6756400D02*
G75*
G03*
X10250800Y-6756400I-40000J0D01*
G01*
X10504800Y-6807200D02*
G75*
G03*
X10504800Y-6807200I-40000J0D01*
G01*
X10852400Y-6764400D02*
G75*
G03*
X10852400Y-6764400I-40000J0D01*
G01*
X11012800Y-7518400D02*
G75*
G03*
X11012800Y-7518400I-40000J0D01*
G01*
X11114400Y-7315200D02*
G75*
G03*
X11114400Y-7315200I-40000J0D01*
G01*
X11470000Y-6908800D02*
G75*
G03*
X11470000Y-6908800I-40000J0D01*
G01*
X12486000Y-7518400D02*
G75*
G03*
X12486000Y-7518400I-40000J0D01*
G01*
X13044800Y-13309600D02*
G75*
G03*
X13044800Y-13309600I-40000J0D01*
G01*
X4898875Y-7654211D02*
X4898875Y-7754211D01*
X4848875Y-7704211D02*
X4948875Y-7704211D01*
X5006220Y-7424009D02*
X5006220Y-7524009D01*
X4956220Y-7474009D02*
X5056220Y-7474009D01*
X5113565Y-7193806D02*
X5113565Y-7293806D01*
X5063565Y-7243806D02*
X5163565Y-7243806D01*
X5220910Y-6963604D02*
X5220910Y-7063604D01*
X5170910Y-7013604D02*
X5270910Y-7013604D01*
X5328255Y-6733402D02*
X5328255Y-6833402D01*
X5278255Y-6783402D02*
X5378255Y-6783402D01*
X5435600Y-6503200D02*
X5435600Y-6603200D01*
X5385600Y-6553200D02*
X5485600Y-6553200D01*
X7112000Y-8332000D02*
X7112000Y-8432000D01*
X7062000Y-8382000D02*
X7162000Y-8382000D01*
X7112000Y-8586000D02*
X7112000Y-8686000D01*
X7062000Y-8636000D02*
X7162000Y-8636000D01*
X7112000Y-8840000D02*
X7112000Y-8940000D01*
X7062000Y-8890000D02*
X7162000Y-8890000D01*
X7112000Y-9094000D02*
X7112000Y-9194000D01*
X7062000Y-9144000D02*
X7162000Y-9144000D01*
X7112000Y-9348000D02*
X7112000Y-9448000D01*
X7062000Y-9398000D02*
X7162000Y-9398000D01*
X7112000Y-9602000D02*
X7112000Y-9702000D01*
X7062000Y-9652000D02*
X7162000Y-9652000D01*
X7112000Y-9856000D02*
X7112000Y-9956000D01*
X7062000Y-9906000D02*
X7162000Y-9906000D01*
X7112000Y-10110000D02*
X7112000Y-10210000D01*
X7062000Y-10160000D02*
X7162000Y-10160000D01*
X7975600Y-12058400D02*
X7975600Y-12158400D01*
X7925600Y-12108400D02*
X8025600Y-12108400D01*
X7975600Y-12312400D02*
X7975600Y-12412400D01*
X7925600Y-12362400D02*
X8025600Y-12362400D01*
X7975600Y-16858400D02*
X7975600Y-16958400D01*
X7925600Y-16908400D02*
X8025600Y-16908400D01*
X7975600Y-17112400D02*
X7975600Y-17212400D01*
X7925600Y-17162400D02*
X8025600Y-17162400D01*
X8229600Y-12058400D02*
X8229600Y-12158400D01*
X8179600Y-12108400D02*
X8279600Y-12108400D01*
X8229600Y-12312400D02*
X8229600Y-12412400D01*
X8179600Y-12362400D02*
X8279600Y-12362400D01*
X8229600Y-16858400D02*
X8229600Y-16958400D01*
X8179600Y-16908400D02*
X8279600Y-16908400D01*
X8229600Y-17112400D02*
X8229600Y-17212400D01*
X8179600Y-17162400D02*
X8279600Y-17162400D01*
X8483600Y-12058400D02*
X8483600Y-12158400D01*
X8433600Y-12108400D02*
X8533600Y-12108400D01*
X8483600Y-12312400D02*
X8483600Y-12412400D01*
X8433600Y-12362400D02*
X8533600Y-12362400D01*
X8483600Y-16858400D02*
X8483600Y-16958400D01*
X8433600Y-16908400D02*
X8533600Y-16908400D01*
X8483600Y-17112400D02*
X8483600Y-17212400D01*
X8433600Y-17162400D02*
X8533600Y-17162400D01*
X8737600Y-12058400D02*
X8737600Y-12158400D01*
X8687600Y-12108400D02*
X8787600Y-12108400D01*
X8737600Y-12312400D02*
X8737600Y-12412400D01*
X8687600Y-12362400D02*
X8787600Y-12362400D01*
X8737600Y-16858400D02*
X8737600Y-16958400D01*
X8687600Y-16908400D02*
X8787600Y-16908400D01*
X8737600Y-17112400D02*
X8737600Y-17212400D01*
X8687600Y-17162400D02*
X8787600Y-17162400D01*
X8991600Y-12058400D02*
X8991600Y-12158400D01*
X8941600Y-12108400D02*
X9041600Y-12108400D01*
X8991600Y-12312400D02*
X8991600Y-12412400D01*
X8941600Y-12362400D02*
X9041600Y-12362400D01*
X8991600Y-16858400D02*
X8991600Y-16958400D01*
X8941600Y-16908400D02*
X9041600Y-16908400D01*
X8991600Y-17112400D02*
X8991600Y-17212400D01*
X8941600Y-17162400D02*
X9041600Y-17162400D01*
X9245600Y-12058400D02*
X9245600Y-12158400D01*
X9195600Y-12108400D02*
X9295600Y-12108400D01*
X9245600Y-12312400D02*
X9245600Y-12412400D01*
X9195600Y-12362400D02*
X9295600Y-12362400D01*
X9245600Y-16858400D02*
X9245600Y-16958400D01*
X9195600Y-16908400D02*
X9295600Y-16908400D01*
X9245600Y-17112400D02*
X9245600Y-17212400D01*
X9195600Y-17162400D02*
X9295600Y-17162400D01*
X9499600Y-12058400D02*
X9499600Y-12158400D01*
X9449600Y-12108400D02*
X9549600Y-12108400D01*
X9499600Y-12312400D02*
X9499600Y-12412400D01*
X9449600Y-12362400D02*
X9549600Y-12362400D01*
X9499600Y-16858400D02*
X9499600Y-16958400D01*
X9449600Y-16908400D02*
X9549600Y-16908400D01*
X9499600Y-17112400D02*
X9499600Y-17212400D01*
X9449600Y-17162400D02*
X9549600Y-17162400D01*
X9710800Y-6147600D02*
X9710800Y-6247600D01*
X9660800Y-6197600D02*
X9760800Y-6197600D01*
X9753600Y-12058400D02*
X9753600Y-12158400D01*
X9703600Y-12108400D02*
X9803600Y-12108400D01*
X9753600Y-12312400D02*
X9753600Y-12412400D01*
X9703600Y-12362400D02*
X9803600Y-12362400D01*
X9753600Y-16858400D02*
X9753600Y-16958400D01*
X9703600Y-16908400D02*
X9803600Y-16908400D01*
X9753600Y-17112400D02*
X9753600Y-17212400D01*
X9703600Y-17162400D02*
X9803600Y-17162400D01*
X9964800Y-6147600D02*
X9964800Y-6247600D01*
X9914800Y-6197600D02*
X10014800Y-6197600D01*
X10007600Y-12058400D02*
X10007600Y-12158400D01*
X9957600Y-12108400D02*
X10057600Y-12108400D01*
X10007600Y-12312400D02*
X10007600Y-12412400D01*
X9957600Y-12362400D02*
X10057600Y-12362400D01*
X10007600Y-16858400D02*
X10007600Y-16958400D01*
X9957600Y-16908400D02*
X10057600Y-16908400D01*
X10007600Y-17112400D02*
X10007600Y-17212400D01*
X9957600Y-17162400D02*
X10057600Y-17162400D01*
X10218800Y-6147600D02*
X10218800Y-6247600D01*
X10168800Y-6197600D02*
X10268800Y-6197600D01*
X10261600Y-12058400D02*
X10261600Y-12158400D01*
X10211600Y-12108400D02*
X10311600Y-12108400D01*
X10261600Y-12312400D02*
X10261600Y-12412400D01*
X10211600Y-12362400D02*
X10311600Y-12362400D01*
X10261600Y-16858400D02*
X10261600Y-16958400D01*
X10211600Y-16908400D02*
X10311600Y-16908400D01*
X10261600Y-17112400D02*
X10261600Y-17212400D01*
X10211600Y-17162400D02*
X10311600Y-17162400D01*
X10472800Y-6147600D02*
X10472800Y-6247600D01*
X10422800Y-6197600D02*
X10522800Y-6197600D01*
X10726800Y-6147600D02*
X10726800Y-6247600D01*
X10676800Y-6197600D02*
X10776800Y-6197600D01*
X10980800Y-6147600D02*
X10980800Y-6247600D01*
X10930800Y-6197600D02*
X11030800Y-6197600D01*
X13762800Y-8587800D02*
X13762800Y-8687800D01*
X13712800Y-8637800D02*
X13812800Y-8637800D01*
X13762800Y-8841800D02*
X13762800Y-8941800D01*
X13712800Y-8891800D02*
X13812800Y-8891800D01*
X13762800Y-9095800D02*
X13762800Y-9195800D01*
X13712800Y-9145800D02*
X13812800Y-9145800D01*
X13762800Y-9349800D02*
X13762800Y-9449800D01*
X13712800Y-9399800D02*
X13812800Y-9399800D01*
X13762800Y-9603800D02*
X13762800Y-9703800D01*
X13712800Y-9653800D02*
X13812800Y-9653800D01*
X13762800Y-9857800D02*
X13762800Y-9957800D01*
X13712800Y-9907800D02*
X13812800Y-9907800D01*
X14766800Y-8586000D02*
X14766800Y-8686000D01*
X14716800Y-8636000D02*
X14816800Y-8636000D01*
X14766800Y-8840000D02*
X14766800Y-8940000D01*
X14716800Y-8890000D02*
X14816800Y-8890000D01*
X14766800Y-9094000D02*
X14766800Y-9194000D01*
X14716800Y-9144000D02*
X14816800Y-9144000D01*
X14766800Y-9348000D02*
X14766800Y-9448000D01*
X14716800Y-9398000D02*
X14816800Y-9398000D01*
X14766800Y-9602000D02*
X14766800Y-9702000D01*
X14716800Y-9652000D02*
X14816800Y-9652000D01*
X14766800Y-9856000D02*
X14766800Y-9956000D01*
X14716800Y-9906000D02*
X14816800Y-9906000D01*
X15392400Y-6554000D02*
X15392400Y-6654000D01*
X15342400Y-6604000D02*
X15442400Y-6604000D01*
X15499745Y-6784202D02*
X15499745Y-6884202D01*
X15449745Y-6834202D02*
X15549745Y-6834202D01*
X15607090Y-7014404D02*
X15607090Y-7114404D01*
X15557090Y-7064404D02*
X15657090Y-7064404D01*
X15714435Y-7244606D02*
X15714435Y-7344606D01*
X15664435Y-7294606D02*
X15764435Y-7294606D01*
X15821780Y-7474809D02*
X15821780Y-7574809D01*
X15771780Y-7524809D02*
X15871780Y-7524809D01*
X15929125Y-7705011D02*
X15929125Y-7805011D01*
X15879125Y-7755011D02*
X15979125Y-7755011D01*
X7201691Y-20354491D02*
X7201691Y-20276709D01*
X7123909Y-20276709D01*
X7123909Y-20354491D01*
X7201691Y-20354491D01*
X7201691Y-20714491D02*
X7201691Y-20636709D01*
X7123909Y-20636709D01*
X7123909Y-20714491D01*
X7201691Y-20714491D01*
D12*
X4805128Y-23074214D02*
X4805128Y-22774214D01*
X4876557Y-22774214D01*
X4919414Y-22788500D01*
X4947986Y-22817071D01*
X4962271Y-22845643D01*
X4976557Y-22902786D01*
X4976557Y-22945643D01*
X4962271Y-23002786D01*
X4947986Y-23031357D01*
X4919414Y-23059929D01*
X4876557Y-23074214D01*
X4805128Y-23074214D01*
X5105128Y-23074214D02*
X5105128Y-22874214D01*
X5105128Y-22931357D02*
X5119414Y-22902786D01*
X5133700Y-22888500D01*
X5162271Y-22874214D01*
X5190843Y-22874214D01*
X5290843Y-23074214D02*
X5290843Y-22874214D01*
X5290843Y-22774214D02*
X5276557Y-22788500D01*
X5290843Y-22802786D01*
X5305128Y-22788500D01*
X5290843Y-22774214D01*
X5290843Y-22802786D01*
X5476557Y-23074214D02*
X5447986Y-23059929D01*
X5433700Y-23031357D01*
X5433700Y-22774214D01*
X5633700Y-23074214D02*
X5605128Y-23059929D01*
X5590843Y-23031357D01*
X5590843Y-22774214D01*
X5976557Y-23074214D02*
X5976557Y-22774214D01*
X6076557Y-22988500D01*
X6176557Y-22774214D01*
X6176557Y-23074214D01*
X6447986Y-23074214D02*
X6447986Y-22917071D01*
X6433700Y-22888500D01*
X6405128Y-22874214D01*
X6347986Y-22874214D01*
X6319414Y-22888500D01*
X6447986Y-23059929D02*
X6419414Y-23074214D01*
X6347986Y-23074214D01*
X6319414Y-23059929D01*
X6305128Y-23031357D01*
X6305128Y-23002786D01*
X6319414Y-22974214D01*
X6347986Y-22959929D01*
X6419414Y-22959929D01*
X6447986Y-22945643D01*
X6590843Y-22874214D02*
X6590843Y-23174214D01*
X6590843Y-22888500D02*
X6619414Y-22874214D01*
X6676557Y-22874214D01*
X6705128Y-22888500D01*
X6719414Y-22902786D01*
X6733700Y-22931357D01*
X6733700Y-23017071D01*
X6719414Y-23045643D01*
X6705128Y-23059929D01*
X6676557Y-23074214D01*
X6619414Y-23074214D01*
X6590843Y-23059929D01*
X6862271Y-23045643D02*
X6876557Y-23059929D01*
X6862271Y-23074214D01*
X6847986Y-23059929D01*
X6862271Y-23045643D01*
X6862271Y-23074214D01*
X6862271Y-22888500D02*
X6876557Y-22902786D01*
X6862271Y-22917071D01*
X6847986Y-22902786D01*
X6862271Y-22888500D01*
X6862271Y-22917071D01*
X4442500Y-23530400D02*
X4518700Y-23606600D01*
X4518700Y-23530400D02*
X4442500Y-23606600D01*
X4862271Y-23404214D02*
X4890843Y-23404214D01*
X4919414Y-23418500D01*
X4933700Y-23432786D01*
X4947986Y-23461357D01*
X4962271Y-23518500D01*
X4962271Y-23589929D01*
X4947986Y-23647071D01*
X4933700Y-23675643D01*
X4919414Y-23689929D01*
X4890843Y-23704214D01*
X4862271Y-23704214D01*
X4833700Y-23689929D01*
X4819414Y-23675643D01*
X4805128Y-23647071D01*
X4790843Y-23589929D01*
X4790843Y-23518500D01*
X4805128Y-23461357D01*
X4819414Y-23432786D01*
X4833700Y-23418500D01*
X4862271Y-23404214D01*
X5090843Y-23675643D02*
X5105128Y-23689929D01*
X5090843Y-23704214D01*
X5076557Y-23689929D01*
X5090843Y-23675643D01*
X5090843Y-23704214D01*
X5205128Y-23404214D02*
X5405128Y-23404214D01*
X5276557Y-23704214D01*
X5647986Y-23404214D02*
X5590843Y-23404214D01*
X5562271Y-23418500D01*
X5547986Y-23432786D01*
X5519414Y-23475643D01*
X5505128Y-23532786D01*
X5505128Y-23647071D01*
X5519414Y-23675643D01*
X5533700Y-23689929D01*
X5562271Y-23704214D01*
X5619414Y-23704214D01*
X5647986Y-23689929D01*
X5662271Y-23675643D01*
X5676557Y-23647071D01*
X5676557Y-23575643D01*
X5662271Y-23547071D01*
X5647986Y-23532786D01*
X5619414Y-23518500D01*
X5562271Y-23518500D01*
X5533700Y-23532786D01*
X5519414Y-23547071D01*
X5505128Y-23575643D01*
X5805128Y-23704214D02*
X5805128Y-23504214D01*
X5805128Y-23532786D02*
X5819414Y-23518500D01*
X5847986Y-23504214D01*
X5890843Y-23504214D01*
X5919414Y-23518500D01*
X5933700Y-23547071D01*
X5933700Y-23704214D01*
X5933700Y-23547071D02*
X5947986Y-23518500D01*
X5976557Y-23504214D01*
X6019414Y-23504214D01*
X6047986Y-23518500D01*
X6062271Y-23547071D01*
X6062271Y-23704214D01*
X6205128Y-23704214D02*
X6205128Y-23504214D01*
X6205128Y-23532786D02*
X6219414Y-23518500D01*
X6247986Y-23504214D01*
X6290843Y-23504214D01*
X6319414Y-23518500D01*
X6333700Y-23547071D01*
X6333700Y-23704214D01*
X6333700Y-23547071D02*
X6347986Y-23518500D01*
X6376557Y-23504214D01*
X6419414Y-23504214D01*
X6447986Y-23518500D01*
X6462271Y-23547071D01*
X6462271Y-23704214D01*
X7047986Y-23389929D02*
X6790843Y-23775643D01*
X7433700Y-23404214D02*
X7462271Y-23404214D01*
X7490843Y-23418500D01*
X7505128Y-23432786D01*
X7519414Y-23461357D01*
X7533700Y-23518500D01*
X7533700Y-23589929D01*
X7519414Y-23647071D01*
X7505128Y-23675643D01*
X7490843Y-23689929D01*
X7462271Y-23704214D01*
X7433700Y-23704214D01*
X7405128Y-23689929D01*
X7390843Y-23675643D01*
X7376557Y-23647071D01*
X7362271Y-23589929D01*
X7362271Y-23518500D01*
X7376557Y-23461357D01*
X7390843Y-23432786D01*
X7405128Y-23418500D01*
X7433700Y-23404214D01*
X7662271Y-23675643D02*
X7676557Y-23689929D01*
X7662271Y-23704214D01*
X7647986Y-23689929D01*
X7662271Y-23675643D01*
X7662271Y-23704214D01*
X7862271Y-23404214D02*
X7890843Y-23404214D01*
X7919414Y-23418500D01*
X7933700Y-23432786D01*
X7947986Y-23461357D01*
X7962271Y-23518500D01*
X7962271Y-23589929D01*
X7947986Y-23647071D01*
X7933700Y-23675643D01*
X7919414Y-23689929D01*
X7890843Y-23704214D01*
X7862271Y-23704214D01*
X7833700Y-23689929D01*
X7819414Y-23675643D01*
X7805128Y-23647071D01*
X7790843Y-23589929D01*
X7790843Y-23518500D01*
X7805128Y-23461357D01*
X7819414Y-23432786D01*
X7833700Y-23418500D01*
X7862271Y-23404214D01*
X8062271Y-23404214D02*
X8247986Y-23404214D01*
X8147986Y-23518500D01*
X8190843Y-23518500D01*
X8219414Y-23532786D01*
X8233700Y-23547071D01*
X8247986Y-23575643D01*
X8247986Y-23647071D01*
X8233700Y-23675643D01*
X8219414Y-23689929D01*
X8190843Y-23704214D01*
X8105128Y-23704214D01*
X8076557Y-23689929D01*
X8062271Y-23675643D01*
X8433700Y-23404214D02*
X8462271Y-23404214D01*
X8490843Y-23418500D01*
X8505128Y-23432786D01*
X8519414Y-23461357D01*
X8533700Y-23518500D01*
X8533700Y-23589929D01*
X8519414Y-23647071D01*
X8505128Y-23675643D01*
X8490843Y-23689929D01*
X8462271Y-23704214D01*
X8433700Y-23704214D01*
X8405128Y-23689929D01*
X8390843Y-23675643D01*
X8376557Y-23647071D01*
X8362271Y-23589929D01*
X8362271Y-23518500D01*
X8376557Y-23461357D01*
X8390843Y-23432786D01*
X8405128Y-23418500D01*
X8433700Y-23404214D01*
X8647986Y-23404214D02*
X8647986Y-23461357D01*
X8762271Y-23404214D02*
X8762271Y-23461357D01*
X9205128Y-23818500D02*
X9190843Y-23804214D01*
X9162271Y-23761357D01*
X9147986Y-23732786D01*
X9133700Y-23689929D01*
X9119414Y-23618500D01*
X9119414Y-23561357D01*
X9133700Y-23489929D01*
X9147986Y-23447071D01*
X9162271Y-23418500D01*
X9190843Y-23375643D01*
X9205128Y-23361357D01*
X9290843Y-23404214D02*
X9476557Y-23404214D01*
X9376557Y-23518500D01*
X9419414Y-23518500D01*
X9447986Y-23532786D01*
X9462271Y-23547071D01*
X9476557Y-23575643D01*
X9476557Y-23647071D01*
X9462271Y-23675643D01*
X9447986Y-23689929D01*
X9419414Y-23704214D01*
X9333700Y-23704214D01*
X9305128Y-23689929D01*
X9290843Y-23675643D01*
X9662271Y-23404214D02*
X9690843Y-23404214D01*
X9719414Y-23418500D01*
X9733700Y-23432786D01*
X9747986Y-23461357D01*
X9762271Y-23518500D01*
X9762271Y-23589929D01*
X9747986Y-23647071D01*
X9733700Y-23675643D01*
X9719414Y-23689929D01*
X9690843Y-23704214D01*
X9662271Y-23704214D01*
X9633700Y-23689929D01*
X9619414Y-23675643D01*
X9605128Y-23647071D01*
X9590843Y-23589929D01*
X9590843Y-23518500D01*
X9605128Y-23461357D01*
X9619414Y-23432786D01*
X9633700Y-23418500D01*
X9662271Y-23404214D01*
X10119414Y-23704214D02*
X10119414Y-23404214D01*
X10247986Y-23704214D02*
X10247986Y-23547071D01*
X10233700Y-23518500D01*
X10205128Y-23504214D01*
X10162271Y-23504214D01*
X10133700Y-23518500D01*
X10119414Y-23532786D01*
X10433700Y-23704214D02*
X10405128Y-23689929D01*
X10390843Y-23675643D01*
X10376557Y-23647071D01*
X10376557Y-23561357D01*
X10390843Y-23532786D01*
X10405128Y-23518500D01*
X10433700Y-23504214D01*
X10476557Y-23504214D01*
X10505128Y-23518500D01*
X10519414Y-23532786D01*
X10533700Y-23561357D01*
X10533700Y-23647071D01*
X10519414Y-23675643D01*
X10505128Y-23689929D01*
X10476557Y-23704214D01*
X10433700Y-23704214D01*
X10705128Y-23704214D02*
X10676557Y-23689929D01*
X10662271Y-23661357D01*
X10662271Y-23404214D01*
X10933700Y-23689929D02*
X10905128Y-23704214D01*
X10847986Y-23704214D01*
X10819414Y-23689929D01*
X10805128Y-23661357D01*
X10805128Y-23547071D01*
X10819414Y-23518500D01*
X10847986Y-23504214D01*
X10905128Y-23504214D01*
X10933700Y-23518500D01*
X10947986Y-23547071D01*
X10947986Y-23575643D01*
X10805128Y-23604214D01*
X11062271Y-23689929D02*
X11090843Y-23704214D01*
X11147986Y-23704214D01*
X11176557Y-23689929D01*
X11190843Y-23661357D01*
X11190843Y-23647071D01*
X11176557Y-23618500D01*
X11147986Y-23604214D01*
X11105128Y-23604214D01*
X11076557Y-23589929D01*
X11062271Y-23561357D01*
X11062271Y-23547071D01*
X11076557Y-23518500D01*
X11105128Y-23504214D01*
X11147986Y-23504214D01*
X11176557Y-23518500D01*
X11290843Y-23818500D02*
X11305128Y-23804214D01*
X11333700Y-23761357D01*
X11347986Y-23732786D01*
X11362271Y-23689929D01*
X11376557Y-23618500D01*
X11376557Y-23561357D01*
X11362271Y-23489929D01*
X11347986Y-23447071D01*
X11333700Y-23418500D01*
X11305128Y-23375643D01*
X11290843Y-23361357D01*
X4518700Y-23964500D02*
G75*
G03*
X4518700Y-23964500I-40000J0D01*
G01*
X4862271Y-23800214D02*
X4890843Y-23800214D01*
X4919414Y-23814500D01*
X4933700Y-23828786D01*
X4947986Y-23857357D01*
X4962271Y-23914500D01*
X4962271Y-23985929D01*
X4947986Y-24043071D01*
X4933700Y-24071643D01*
X4919414Y-24085929D01*
X4890843Y-24100214D01*
X4862271Y-24100214D01*
X4833700Y-24085929D01*
X4819414Y-24071643D01*
X4805128Y-24043071D01*
X4790843Y-23985929D01*
X4790843Y-23914500D01*
X4805128Y-23857357D01*
X4819414Y-23828786D01*
X4833700Y-23814500D01*
X4862271Y-23800214D01*
X5090843Y-24071643D02*
X5105128Y-24085929D01*
X5090843Y-24100214D01*
X5076557Y-24085929D01*
X5090843Y-24071643D01*
X5090843Y-24100214D01*
X5276557Y-23928786D02*
X5247986Y-23914500D01*
X5233700Y-23900214D01*
X5219414Y-23871643D01*
X5219414Y-23857357D01*
X5233700Y-23828786D01*
X5247986Y-23814500D01*
X5276557Y-23800214D01*
X5333700Y-23800214D01*
X5362271Y-23814500D01*
X5376557Y-23828786D01*
X5390843Y-23857357D01*
X5390843Y-23871643D01*
X5376557Y-23900214D01*
X5362271Y-23914500D01*
X5333700Y-23928786D01*
X5276557Y-23928786D01*
X5247986Y-23943071D01*
X5233700Y-23957357D01*
X5219414Y-23985929D01*
X5219414Y-24043071D01*
X5233700Y-24071643D01*
X5247986Y-24085929D01*
X5276557Y-24100214D01*
X5333700Y-24100214D01*
X5362271Y-24085929D01*
X5376557Y-24071643D01*
X5390843Y-24043071D01*
X5390843Y-23985929D01*
X5376557Y-23957357D01*
X5362271Y-23943071D01*
X5333700Y-23928786D01*
X5576557Y-23800214D02*
X5605128Y-23800214D01*
X5633700Y-23814500D01*
X5647986Y-23828786D01*
X5662271Y-23857357D01*
X5676557Y-23914500D01*
X5676557Y-23985929D01*
X5662271Y-24043071D01*
X5647986Y-24071643D01*
X5633700Y-24085929D01*
X5605128Y-24100214D01*
X5576557Y-24100214D01*
X5547986Y-24085929D01*
X5533700Y-24071643D01*
X5519414Y-24043071D01*
X5505128Y-23985929D01*
X5505128Y-23914500D01*
X5519414Y-23857357D01*
X5533700Y-23828786D01*
X5547986Y-23814500D01*
X5576557Y-23800214D01*
X5805128Y-24100214D02*
X5805128Y-23900214D01*
X5805128Y-23928786D02*
X5819414Y-23914500D01*
X5847986Y-23900214D01*
X5890843Y-23900214D01*
X5919414Y-23914500D01*
X5933700Y-23943071D01*
X5933700Y-24100214D01*
X5933700Y-23943071D02*
X5947986Y-23914500D01*
X5976557Y-23900214D01*
X6019414Y-23900214D01*
X6047986Y-23914500D01*
X6062271Y-23943071D01*
X6062271Y-24100214D01*
X6205128Y-24100214D02*
X6205128Y-23900214D01*
X6205128Y-23928786D02*
X6219414Y-23914500D01*
X6247986Y-23900214D01*
X6290843Y-23900214D01*
X6319414Y-23914500D01*
X6333700Y-23943071D01*
X6333700Y-24100214D01*
X6333700Y-23943071D02*
X6347986Y-23914500D01*
X6376557Y-23900214D01*
X6419414Y-23900214D01*
X6447986Y-23914500D01*
X6462271Y-23943071D01*
X6462271Y-24100214D01*
X7047986Y-23785929D02*
X6790843Y-24171643D01*
X7433700Y-23800214D02*
X7462271Y-23800214D01*
X7490843Y-23814500D01*
X7505128Y-23828786D01*
X7519414Y-23857357D01*
X7533700Y-23914500D01*
X7533700Y-23985929D01*
X7519414Y-24043071D01*
X7505128Y-24071643D01*
X7490843Y-24085929D01*
X7462271Y-24100214D01*
X7433700Y-24100214D01*
X7405128Y-24085929D01*
X7390843Y-24071643D01*
X7376557Y-24043071D01*
X7362271Y-23985929D01*
X7362271Y-23914500D01*
X7376557Y-23857357D01*
X7390843Y-23828786D01*
X7405128Y-23814500D01*
X7433700Y-23800214D01*
X7662271Y-24071643D02*
X7676557Y-24085929D01*
X7662271Y-24100214D01*
X7647986Y-24085929D01*
X7662271Y-24071643D01*
X7662271Y-24100214D01*
X7862271Y-23800214D02*
X7890843Y-23800214D01*
X7919414Y-23814500D01*
X7933700Y-23828786D01*
X7947986Y-23857357D01*
X7962271Y-23914500D01*
X7962271Y-23985929D01*
X7947986Y-24043071D01*
X7933700Y-24071643D01*
X7919414Y-24085929D01*
X7890843Y-24100214D01*
X7862271Y-24100214D01*
X7833700Y-24085929D01*
X7819414Y-24071643D01*
X7805128Y-24043071D01*
X7790843Y-23985929D01*
X7790843Y-23914500D01*
X7805128Y-23857357D01*
X7819414Y-23828786D01*
X7833700Y-23814500D01*
X7862271Y-23800214D01*
X8062271Y-23800214D02*
X8247986Y-23800214D01*
X8147986Y-23914500D01*
X8190843Y-23914500D01*
X8219414Y-23928786D01*
X8233700Y-23943071D01*
X8247986Y-23971643D01*
X8247986Y-24043071D01*
X8233700Y-24071643D01*
X8219414Y-24085929D01*
X8190843Y-24100214D01*
X8105128Y-24100214D01*
X8076557Y-24085929D01*
X8062271Y-24071643D01*
X8533700Y-24100214D02*
X8362271Y-24100214D01*
X8447986Y-24100214D02*
X8447986Y-23800214D01*
X8419414Y-23843071D01*
X8390843Y-23871643D01*
X8362271Y-23885929D01*
X8647986Y-23800214D02*
X8647986Y-23857357D01*
X8762271Y-23800214D02*
X8762271Y-23857357D01*
X9205128Y-24214500D02*
X9190843Y-24200214D01*
X9162271Y-24157357D01*
X9147986Y-24128786D01*
X9133700Y-24085929D01*
X9119414Y-24014500D01*
X9119414Y-23957357D01*
X9133700Y-23885929D01*
X9147986Y-23843071D01*
X9162271Y-23814500D01*
X9190843Y-23771643D01*
X9205128Y-23757357D01*
X9476557Y-24100214D02*
X9305128Y-24100214D01*
X9390843Y-24100214D02*
X9390843Y-23800214D01*
X9362271Y-23843071D01*
X9333700Y-23871643D01*
X9305128Y-23885929D01*
X9762271Y-24100214D02*
X9590843Y-24100214D01*
X9676557Y-24100214D02*
X9676557Y-23800214D01*
X9647986Y-23843071D01*
X9619414Y-23871643D01*
X9590843Y-23885929D01*
X10119414Y-24100214D02*
X10119414Y-23800214D01*
X10247986Y-24100214D02*
X10247986Y-23943071D01*
X10233700Y-23914500D01*
X10205128Y-23900214D01*
X10162271Y-23900214D01*
X10133700Y-23914500D01*
X10119414Y-23928786D01*
X10433700Y-24100214D02*
X10405128Y-24085929D01*
X10390843Y-24071643D01*
X10376557Y-24043071D01*
X10376557Y-23957357D01*
X10390843Y-23928786D01*
X10405128Y-23914500D01*
X10433700Y-23900214D01*
X10476557Y-23900214D01*
X10505128Y-23914500D01*
X10519414Y-23928786D01*
X10533700Y-23957357D01*
X10533700Y-24043071D01*
X10519414Y-24071643D01*
X10505128Y-24085929D01*
X10476557Y-24100214D01*
X10433700Y-24100214D01*
X10705128Y-24100214D02*
X10676557Y-24085929D01*
X10662271Y-24057357D01*
X10662271Y-23800214D01*
X10933700Y-24085929D02*
X10905128Y-24100214D01*
X10847986Y-24100214D01*
X10819414Y-24085929D01*
X10805128Y-24057357D01*
X10805128Y-23943071D01*
X10819414Y-23914500D01*
X10847986Y-23900214D01*
X10905128Y-23900214D01*
X10933700Y-23914500D01*
X10947986Y-23943071D01*
X10947986Y-23971643D01*
X10805128Y-24000214D01*
X11062271Y-24085929D02*
X11090843Y-24100214D01*
X11147986Y-24100214D01*
X11176557Y-24085929D01*
X11190843Y-24057357D01*
X11190843Y-24043071D01*
X11176557Y-24014500D01*
X11147986Y-24000214D01*
X11105128Y-24000214D01*
X11076557Y-23985929D01*
X11062271Y-23957357D01*
X11062271Y-23943071D01*
X11076557Y-23914500D01*
X11105128Y-23900214D01*
X11147986Y-23900214D01*
X11176557Y-23914500D01*
X11290843Y-24214500D02*
X11305128Y-24200214D01*
X11333700Y-24157357D01*
X11347986Y-24128786D01*
X11362271Y-24085929D01*
X11376557Y-24014500D01*
X11376557Y-23957357D01*
X11362271Y-23885929D01*
X11347986Y-23843071D01*
X11333700Y-23814500D01*
X11305128Y-23771643D01*
X11290843Y-23757357D01*
X4468700Y-24310500D02*
X4468700Y-24410500D01*
X4418700Y-24360500D02*
X4518700Y-24360500D01*
X4962271Y-24496214D02*
X4790843Y-24496214D01*
X4876557Y-24496214D02*
X4876557Y-24196214D01*
X4847986Y-24239071D01*
X4819414Y-24267643D01*
X4790843Y-24281929D01*
X5090843Y-24467643D02*
X5105128Y-24481929D01*
X5090843Y-24496214D01*
X5076557Y-24481929D01*
X5090843Y-24467643D01*
X5090843Y-24496214D01*
X5290843Y-24196214D02*
X5319414Y-24196214D01*
X5347986Y-24210500D01*
X5362271Y-24224786D01*
X5376557Y-24253357D01*
X5390843Y-24310500D01*
X5390843Y-24381929D01*
X5376557Y-24439071D01*
X5362271Y-24467643D01*
X5347986Y-24481929D01*
X5319414Y-24496214D01*
X5290843Y-24496214D01*
X5262271Y-24481929D01*
X5247986Y-24467643D01*
X5233700Y-24439071D01*
X5219414Y-24381929D01*
X5219414Y-24310500D01*
X5233700Y-24253357D01*
X5247986Y-24224786D01*
X5262271Y-24210500D01*
X5290843Y-24196214D01*
X5576557Y-24196214D02*
X5605128Y-24196214D01*
X5633700Y-24210500D01*
X5647986Y-24224786D01*
X5662271Y-24253357D01*
X5676557Y-24310500D01*
X5676557Y-24381929D01*
X5662271Y-24439071D01*
X5647986Y-24467643D01*
X5633700Y-24481929D01*
X5605128Y-24496214D01*
X5576557Y-24496214D01*
X5547986Y-24481929D01*
X5533700Y-24467643D01*
X5519414Y-24439071D01*
X5505128Y-24381929D01*
X5505128Y-24310500D01*
X5519414Y-24253357D01*
X5533700Y-24224786D01*
X5547986Y-24210500D01*
X5576557Y-24196214D01*
X5805128Y-24496214D02*
X5805128Y-24296214D01*
X5805128Y-24324786D02*
X5819414Y-24310500D01*
X5847986Y-24296214D01*
X5890843Y-24296214D01*
X5919414Y-24310500D01*
X5933700Y-24339071D01*
X5933700Y-24496214D01*
X5933700Y-24339071D02*
X5947986Y-24310500D01*
X5976557Y-24296214D01*
X6019414Y-24296214D01*
X6047986Y-24310500D01*
X6062271Y-24339071D01*
X6062271Y-24496214D01*
X6205128Y-24496214D02*
X6205128Y-24296214D01*
X6205128Y-24324786D02*
X6219414Y-24310500D01*
X6247986Y-24296214D01*
X6290843Y-24296214D01*
X6319414Y-24310500D01*
X6333700Y-24339071D01*
X6333700Y-24496214D01*
X6333700Y-24339071D02*
X6347986Y-24310500D01*
X6376557Y-24296214D01*
X6419414Y-24296214D01*
X6447986Y-24310500D01*
X6462271Y-24339071D01*
X6462271Y-24496214D01*
X7047986Y-24181929D02*
X6790843Y-24567643D01*
X7433700Y-24196214D02*
X7462271Y-24196214D01*
X7490843Y-24210500D01*
X7505128Y-24224786D01*
X7519414Y-24253357D01*
X7533700Y-24310500D01*
X7533700Y-24381929D01*
X7519414Y-24439071D01*
X7505128Y-24467643D01*
X7490843Y-24481929D01*
X7462271Y-24496214D01*
X7433700Y-24496214D01*
X7405128Y-24481929D01*
X7390843Y-24467643D01*
X7376557Y-24439071D01*
X7362271Y-24381929D01*
X7362271Y-24310500D01*
X7376557Y-24253357D01*
X7390843Y-24224786D01*
X7405128Y-24210500D01*
X7433700Y-24196214D01*
X7662271Y-24467643D02*
X7676557Y-24481929D01*
X7662271Y-24496214D01*
X7647986Y-24481929D01*
X7662271Y-24467643D01*
X7662271Y-24496214D01*
X7862271Y-24196214D02*
X7890843Y-24196214D01*
X7919414Y-24210500D01*
X7933700Y-24224786D01*
X7947986Y-24253357D01*
X7962271Y-24310500D01*
X7962271Y-24381929D01*
X7947986Y-24439071D01*
X7933700Y-24467643D01*
X7919414Y-24481929D01*
X7890843Y-24496214D01*
X7862271Y-24496214D01*
X7833700Y-24481929D01*
X7819414Y-24467643D01*
X7805128Y-24439071D01*
X7790843Y-24381929D01*
X7790843Y-24310500D01*
X7805128Y-24253357D01*
X7819414Y-24224786D01*
X7833700Y-24210500D01*
X7862271Y-24196214D01*
X8062271Y-24196214D02*
X8247986Y-24196214D01*
X8147986Y-24310500D01*
X8190843Y-24310500D01*
X8219414Y-24324786D01*
X8233700Y-24339071D01*
X8247986Y-24367643D01*
X8247986Y-24439071D01*
X8233700Y-24467643D01*
X8219414Y-24481929D01*
X8190843Y-24496214D01*
X8105128Y-24496214D01*
X8076557Y-24481929D01*
X8062271Y-24467643D01*
X8390843Y-24496214D02*
X8447986Y-24496214D01*
X8476557Y-24481929D01*
X8490843Y-24467643D01*
X8519414Y-24424786D01*
X8533700Y-24367643D01*
X8533700Y-24253357D01*
X8519414Y-24224786D01*
X8505128Y-24210500D01*
X8476557Y-24196214D01*
X8419414Y-24196214D01*
X8390843Y-24210500D01*
X8376557Y-24224786D01*
X8362271Y-24253357D01*
X8362271Y-24324786D01*
X8376557Y-24353357D01*
X8390843Y-24367643D01*
X8419414Y-24381929D01*
X8476557Y-24381929D01*
X8505128Y-24367643D01*
X8519414Y-24353357D01*
X8533700Y-24324786D01*
X8647986Y-24196214D02*
X8647986Y-24253357D01*
X8762271Y-24196214D02*
X8762271Y-24253357D01*
X9205128Y-24610500D02*
X9190843Y-24596214D01*
X9162271Y-24553357D01*
X9147986Y-24524786D01*
X9133700Y-24481929D01*
X9119414Y-24410500D01*
X9119414Y-24353357D01*
X9133700Y-24281929D01*
X9147986Y-24239071D01*
X9162271Y-24210500D01*
X9190843Y-24167643D01*
X9205128Y-24153357D01*
X9290843Y-24196214D02*
X9490843Y-24196214D01*
X9362271Y-24496214D01*
X9647986Y-24324786D02*
X9619414Y-24310500D01*
X9605128Y-24296214D01*
X9590843Y-24267643D01*
X9590843Y-24253357D01*
X9605128Y-24224786D01*
X9619414Y-24210500D01*
X9647986Y-24196214D01*
X9705128Y-24196214D01*
X9733700Y-24210500D01*
X9747986Y-24224786D01*
X9762271Y-24253357D01*
X9762271Y-24267643D01*
X9747986Y-24296214D01*
X9733700Y-24310500D01*
X9705128Y-24324786D01*
X9647986Y-24324786D01*
X9619414Y-24339071D01*
X9605128Y-24353357D01*
X9590843Y-24381929D01*
X9590843Y-24439071D01*
X9605128Y-24467643D01*
X9619414Y-24481929D01*
X9647986Y-24496214D01*
X9705128Y-24496214D01*
X9733700Y-24481929D01*
X9747986Y-24467643D01*
X9762271Y-24439071D01*
X9762271Y-24381929D01*
X9747986Y-24353357D01*
X9733700Y-24339071D01*
X9705128Y-24324786D01*
X10119414Y-24496214D02*
X10119414Y-24196214D01*
X10247986Y-24496214D02*
X10247986Y-24339071D01*
X10233700Y-24310500D01*
X10205128Y-24296214D01*
X10162271Y-24296214D01*
X10133700Y-24310500D01*
X10119414Y-24324786D01*
X10433700Y-24496214D02*
X10405128Y-24481929D01*
X10390843Y-24467643D01*
X10376557Y-24439071D01*
X10376557Y-24353357D01*
X10390843Y-24324786D01*
X10405128Y-24310500D01*
X10433700Y-24296214D01*
X10476557Y-24296214D01*
X10505128Y-24310500D01*
X10519414Y-24324786D01*
X10533700Y-24353357D01*
X10533700Y-24439071D01*
X10519414Y-24467643D01*
X10505128Y-24481929D01*
X10476557Y-24496214D01*
X10433700Y-24496214D01*
X10705128Y-24496214D02*
X10676557Y-24481929D01*
X10662271Y-24453357D01*
X10662271Y-24196214D01*
X10933700Y-24481929D02*
X10905128Y-24496214D01*
X10847986Y-24496214D01*
X10819414Y-24481929D01*
X10805128Y-24453357D01*
X10805128Y-24339071D01*
X10819414Y-24310500D01*
X10847986Y-24296214D01*
X10905128Y-24296214D01*
X10933700Y-24310500D01*
X10947986Y-24339071D01*
X10947986Y-24367643D01*
X10805128Y-24396214D01*
X11062271Y-24481929D02*
X11090843Y-24496214D01*
X11147986Y-24496214D01*
X11176557Y-24481929D01*
X11190843Y-24453357D01*
X11190843Y-24439071D01*
X11176557Y-24410500D01*
X11147986Y-24396214D01*
X11105128Y-24396214D01*
X11076557Y-24381929D01*
X11062271Y-24353357D01*
X11062271Y-24339071D01*
X11076557Y-24310500D01*
X11105128Y-24296214D01*
X11147986Y-24296214D01*
X11176557Y-24310500D01*
X11290843Y-24610500D02*
X11305128Y-24596214D01*
X11333700Y-24553357D01*
X11347986Y-24524786D01*
X11362271Y-24481929D01*
X11376557Y-24410500D01*
X11376557Y-24353357D01*
X11362271Y-24281929D01*
X11347986Y-24239071D01*
X11333700Y-24210500D01*
X11305128Y-24167643D01*
X11290843Y-24153357D01*
X4502591Y-24795391D02*
X4502591Y-24717609D01*
X4424809Y-24717609D01*
X4424809Y-24795391D01*
X4502591Y-24795391D01*
X4962271Y-24892214D02*
X4790843Y-24892214D01*
X4876557Y-24892214D02*
X4876557Y-24592214D01*
X4847986Y-24635071D01*
X4819414Y-24663643D01*
X4790843Y-24677929D01*
X5090843Y-24863643D02*
X5105128Y-24877929D01*
X5090843Y-24892214D01*
X5076557Y-24877929D01*
X5090843Y-24863643D01*
X5090843Y-24892214D01*
X5390843Y-24892214D02*
X5219414Y-24892214D01*
X5305128Y-24892214D02*
X5305128Y-24592214D01*
X5276557Y-24635071D01*
X5247986Y-24663643D01*
X5219414Y-24677929D01*
X5576557Y-24592214D02*
X5605128Y-24592214D01*
X5633700Y-24606500D01*
X5647986Y-24620786D01*
X5662271Y-24649357D01*
X5676557Y-24706500D01*
X5676557Y-24777929D01*
X5662271Y-24835071D01*
X5647986Y-24863643D01*
X5633700Y-24877929D01*
X5605128Y-24892214D01*
X5576557Y-24892214D01*
X5547986Y-24877929D01*
X5533700Y-24863643D01*
X5519414Y-24835071D01*
X5505128Y-24777929D01*
X5505128Y-24706500D01*
X5519414Y-24649357D01*
X5533700Y-24620786D01*
X5547986Y-24606500D01*
X5576557Y-24592214D01*
X5805128Y-24892214D02*
X5805128Y-24692214D01*
X5805128Y-24720786D02*
X5819414Y-24706500D01*
X5847986Y-24692214D01*
X5890843Y-24692214D01*
X5919414Y-24706500D01*
X5933700Y-24735071D01*
X5933700Y-24892214D01*
X5933700Y-24735071D02*
X5947986Y-24706500D01*
X5976557Y-24692214D01*
X6019414Y-24692214D01*
X6047986Y-24706500D01*
X6062271Y-24735071D01*
X6062271Y-24892214D01*
X6205128Y-24892214D02*
X6205128Y-24692214D01*
X6205128Y-24720786D02*
X6219414Y-24706500D01*
X6247986Y-24692214D01*
X6290843Y-24692214D01*
X6319414Y-24706500D01*
X6333700Y-24735071D01*
X6333700Y-24892214D01*
X6333700Y-24735071D02*
X6347986Y-24706500D01*
X6376557Y-24692214D01*
X6419414Y-24692214D01*
X6447986Y-24706500D01*
X6462271Y-24735071D01*
X6462271Y-24892214D01*
X7047986Y-24577929D02*
X6790843Y-24963643D01*
X7433700Y-24592214D02*
X7462271Y-24592214D01*
X7490843Y-24606500D01*
X7505128Y-24620786D01*
X7519414Y-24649357D01*
X7533700Y-24706500D01*
X7533700Y-24777929D01*
X7519414Y-24835071D01*
X7505128Y-24863643D01*
X7490843Y-24877929D01*
X7462271Y-24892214D01*
X7433700Y-24892214D01*
X7405128Y-24877929D01*
X7390843Y-24863643D01*
X7376557Y-24835071D01*
X7362271Y-24777929D01*
X7362271Y-24706500D01*
X7376557Y-24649357D01*
X7390843Y-24620786D01*
X7405128Y-24606500D01*
X7433700Y-24592214D01*
X7662271Y-24863643D02*
X7676557Y-24877929D01*
X7662271Y-24892214D01*
X7647986Y-24877929D01*
X7662271Y-24863643D01*
X7662271Y-24892214D01*
X7862271Y-24592214D02*
X7890843Y-24592214D01*
X7919414Y-24606500D01*
X7933700Y-24620786D01*
X7947986Y-24649357D01*
X7962271Y-24706500D01*
X7962271Y-24777929D01*
X7947986Y-24835071D01*
X7933700Y-24863643D01*
X7919414Y-24877929D01*
X7890843Y-24892214D01*
X7862271Y-24892214D01*
X7833700Y-24877929D01*
X7819414Y-24863643D01*
X7805128Y-24835071D01*
X7790843Y-24777929D01*
X7790843Y-24706500D01*
X7805128Y-24649357D01*
X7819414Y-24620786D01*
X7833700Y-24606500D01*
X7862271Y-24592214D01*
X8219414Y-24692214D02*
X8219414Y-24892214D01*
X8147986Y-24577929D02*
X8076557Y-24792214D01*
X8262271Y-24792214D01*
X8347986Y-24592214D02*
X8533700Y-24592214D01*
X8433700Y-24706500D01*
X8476557Y-24706500D01*
X8505128Y-24720786D01*
X8519414Y-24735071D01*
X8533700Y-24763643D01*
X8533700Y-24835071D01*
X8519414Y-24863643D01*
X8505128Y-24877929D01*
X8476557Y-24892214D01*
X8390843Y-24892214D01*
X8362271Y-24877929D01*
X8347986Y-24863643D01*
X8647986Y-24592214D02*
X8647986Y-24649357D01*
X8762271Y-24592214D02*
X8762271Y-24649357D01*
X9205128Y-25006500D02*
X9190843Y-24992214D01*
X9162271Y-24949357D01*
X9147986Y-24920786D01*
X9133700Y-24877929D01*
X9119414Y-24806500D01*
X9119414Y-24749357D01*
X9133700Y-24677929D01*
X9147986Y-24635071D01*
X9162271Y-24606500D01*
X9190843Y-24563643D01*
X9205128Y-24549357D01*
X9305128Y-24620786D02*
X9319414Y-24606500D01*
X9347986Y-24592214D01*
X9419414Y-24592214D01*
X9447986Y-24606500D01*
X9462271Y-24620786D01*
X9476557Y-24649357D01*
X9476557Y-24677929D01*
X9462271Y-24720786D01*
X9290843Y-24892214D01*
X9476557Y-24892214D01*
X9833700Y-24892214D02*
X9833700Y-24592214D01*
X9962271Y-24892214D02*
X9962271Y-24735071D01*
X9947986Y-24706500D01*
X9919414Y-24692214D01*
X9876557Y-24692214D01*
X9847986Y-24706500D01*
X9833700Y-24720786D01*
X10147986Y-24892214D02*
X10119414Y-24877929D01*
X10105128Y-24863643D01*
X10090843Y-24835071D01*
X10090843Y-24749357D01*
X10105128Y-24720786D01*
X10119414Y-24706500D01*
X10147986Y-24692214D01*
X10190843Y-24692214D01*
X10219414Y-24706500D01*
X10233700Y-24720786D01*
X10247986Y-24749357D01*
X10247986Y-24835071D01*
X10233700Y-24863643D01*
X10219414Y-24877929D01*
X10190843Y-24892214D01*
X10147986Y-24892214D01*
X10419414Y-24892214D02*
X10390843Y-24877929D01*
X10376557Y-24849357D01*
X10376557Y-24592214D01*
X10647986Y-24877929D02*
X10619414Y-24892214D01*
X10562271Y-24892214D01*
X10533700Y-24877929D01*
X10519414Y-24849357D01*
X10519414Y-24735071D01*
X10533700Y-24706500D01*
X10562271Y-24692214D01*
X10619414Y-24692214D01*
X10647986Y-24706500D01*
X10662271Y-24735071D01*
X10662271Y-24763643D01*
X10519414Y-24792214D01*
X10776557Y-24877929D02*
X10805128Y-24892214D01*
X10862271Y-24892214D01*
X10890843Y-24877929D01*
X10905128Y-24849357D01*
X10905128Y-24835071D01*
X10890843Y-24806500D01*
X10862271Y-24792214D01*
X10819414Y-24792214D01*
X10790843Y-24777929D01*
X10776557Y-24749357D01*
X10776557Y-24735071D01*
X10790843Y-24706500D01*
X10819414Y-24692214D01*
X10862271Y-24692214D01*
X10890843Y-24706500D01*
X11005128Y-25006500D02*
X11019414Y-24992214D01*
X11047986Y-24949357D01*
X11062271Y-24920786D01*
X11076557Y-24877929D01*
X11090843Y-24806500D01*
X11090843Y-24749357D01*
X11076557Y-24677929D01*
X11062271Y-24635071D01*
X11047986Y-24606500D01*
X11019414Y-24563643D01*
X11005128Y-24549357D01*
M02*
