<?xml version="1.0" standalone="no"?>
 <!DOCTYPE svg PUBLIC "-//W3C//DTD SVG 1.1//EN" 
 "http://www.w3.org/Graphics/SVG/1.1/DTD/svg11.dtd"> 
<svg
  xmlns:svg="http://www.w3.org/2000/svg"
  xmlns="http://www.w3.org/2000/svg"
  xmlns:xlink="http://www.w3.org/1999/xlink"
  version="1.1"
  width="21.000720cm" height="29.700220cm" viewBox="0 0 82680 116930">
<title>SVG Picture created as only pins-F_Cu.svg date 2021/12/05 16:16:33 </title>
  <desc>Picture generated by PCBNEW </desc>
<g style="fill:#000000; fill-opacity:1;stroke:#000000; stroke-opacity:1;
stroke-linecap:round; stroke-linejoin:round;"
 transform="translate(0 0) scale(1 1)">
</g>
<g style="fill:#000000; fill-opacity:0.0; 
stroke:#000000; stroke-width:-0.000393701; stroke-opacity:1; 
stroke-linecap:round; stroke-linejoin:round;">
<g >
</g>
<g >
</g>
<g >
</g>
<g >
</g>
<g >
</g>
<g >
</g>
<g >
</g>
<g >
</g>
<g >
</g>
<g >
</g>
<g >
</g>
<g >
</g>
<g >
</g>
<g >
</g>
<g >
</g>
<g >
</g>
<g >
</g>
<g >
</g>
<g >
</g>
<g style="fill:#000000; fill-opacity:0.0; 
stroke:#000000; stroke-width:-0.000393701; stroke-opacity:1; 
stroke-linecap:round; stroke-linejoin:round;">
</g>
<g style="fill:#000000; fill-opacity:1.0; 
stroke:#000000; stroke-width:0; stroke-opacity:1; 
stroke-linecap:round; stroke-linejoin:round;">
<circle cx="73975.3" cy="15431.5" r="334.646" /> 
<circle cx="73552.7" cy="14525.2" r="334.646" /> 
<circle cx="73130.1" cy="13618.9" r="334.646" /> 
<circle cx="72707.4" cy="12712.6" r="334.646" /> 
<circle cx="72284.8" cy="11806.3" r="334.646" /> 
<path style="fill:#000000; fill-opacity:1.0; 
stroke:#000000; stroke-width:0; stroke-opacity:1; 
stroke-linecap:round; stroke-linejoin:round;fill-rule:evenodd;"
d="M 71700.3,11344.7
71417.5,10738.1
72024.1,10455.3
72306.9,11061.9
Z" /> 
</g>
<g >
</g>
<g style="fill:#000000; fill-opacity:1.0; 
stroke:#000000; stroke-width:0; stroke-opacity:1; 
stroke-linecap:round; stroke-linejoin:round;">
<circle cx="67637" cy="16646.7" r="334.646" /> 
<circle cx="66637" cy="16646.7" r="334.646" /> 
<circle cx="65637" cy="16646.7" r="334.646" /> 
<circle cx="64637" cy="16646.7" r="334.646" /> 
<circle cx="63637" cy="16646.7" r="334.646" /> 
<path style="fill:#000000; fill-opacity:1.0; 
stroke:#000000; stroke-width:0; stroke-opacity:1; 
stroke-linecap:round; stroke-linejoin:round;fill-rule:evenodd;"
d="M 62971.7,16981.3
62302.4,16981.3
62302.4,16312
62971.7,16312
Z" /> 
</g>
<g >
</g>
<g style="fill:#000000; fill-opacity:1.0; 
stroke:#000000; stroke-width:0; stroke-opacity:1; 
stroke-linecap:round; stroke-linejoin:round;">
<circle cx="58300" cy="21917.3" r="314.961" /> 
</g>
<g style="fill:#000000; fill-opacity:1.0; 
stroke:#000000; stroke-width:39.3701; stroke-opacity:1; 
stroke-linecap:round; stroke-linejoin:round;">
</g>
<g style="fill:#000000; fill-opacity:1.0; 
stroke:#000000; stroke-width:0; stroke-opacity:1; 
stroke-linecap:round; stroke-linejoin:round;">
<path style="fill:#000000; fill-opacity:1.0; 
stroke:#000000; stroke-width:0; stroke-opacity:1; 
stroke-linecap:round; stroke-linejoin:round;fill-rule:evenodd;"
d="M 58526.3,20185.5
58535.9,20186.9
58545.2,20189.3
58554.3,20192.5
58563,20196.6
58571.3,20201.6
58579,20207.3
58586.2,20213.8
58592.7,20221
58598.4,20228.7
58603.4,20237
58607.5,20245.7
58610.7,20254.8
58613.1,20264.1
58614.5,20273.7
58615,20283.3
58615,20716.7
58614.5,20726.3
58613.1,20735.9
58610.7,20745.2
58607.5,20754.3
58603.4,20763
58598.4,20771.3
58592.7,20779
58586.2,20786.2
58579,20792.7
58571.3,20798.4
58563,20803.4
58554.3,20807.5
58545.2,20810.7
58535.9,20813.1
58526.3,20814.5
58516.7,20815
58083.3,20815
58073.7,20814.5
58064.1,20813.1
58054.8,20810.7
58045.7,20807.5
58037,20803.4
58028.7,20798.4
58021,20792.7
58013.8,20786.2
58007.3,20779
58001.6,20771.3
57996.6,20763
57992.5,20754.3
57989.3,20745.2
57986.9,20735.9
57985.5,20726.3
57985,20716.7
57985,20283.3
57985.5,20273.7
57986.9,20264.1
57989.3,20254.8
57992.5,20245.7
57996.6,20237
58001.6,20228.7
58007.3,20221
58013.8,20213.8
58021,20207.3
58028.7,20201.6
58037,20196.6
58045.7,20192.5
58054.8,20189.3
58064.1,20186.9
58073.7,20185.5
58083.3,20185
58516.7,20185
Z" /> 
</g>
<g >
</g>
<g style="fill:#000000; fill-opacity:1.0; 
stroke:#000000; stroke-width:0; stroke-opacity:1; 
stroke-linecap:round; stroke-linejoin:round;">
<circle cx="67629.9" cy="12693.9" r="334.646" /> 
<circle cx="66629.9" cy="12693.9" r="334.646" /> 
<circle cx="65629.9" cy="12693.9" r="334.646" /> 
<circle cx="64629.9" cy="12693.9" r="334.646" /> 
<circle cx="63629.9" cy="12693.9" r="334.646" /> 
<path style="fill:#000000; fill-opacity:1.0; 
stroke:#000000; stroke-width:0; stroke-opacity:1; 
stroke-linecap:round; stroke-linejoin:round;fill-rule:evenodd;"
d="M 62964.6,13028.5
62295.3,13028.5
62295.3,12359.2
62964.6,12359.2
Z" /> 
</g>
<g >
</g>
<g style="fill:#000000; fill-opacity:1.0; 
stroke:#000000; stroke-width:0; stroke-opacity:1; 
stroke-linecap:round; stroke-linejoin:round;">
<circle cx="69800" cy="24200" r="334.646" /> 
<circle cx="69800" cy="23200" r="334.646" /> 
<circle cx="68800" cy="24200" r="334.646" /> 
<circle cx="68800" cy="23200" r="334.646" /> 
<circle cx="67800" cy="24200" r="334.646" /> 
<circle cx="67800" cy="23200" r="334.646" /> 
<circle cx="66800" cy="24200" r="334.646" /> 
<circle cx="66800" cy="23200" r="334.646" /> 
<circle cx="65800" cy="24200" r="334.646" /> 
<circle cx="65800" cy="23200" r="334.646" /> 
<circle cx="64800" cy="24200" r="334.646" /> 
<circle cx="64800" cy="23200" r="334.646" /> 
<circle cx="63800" cy="24200" r="334.646" /> 
<circle cx="63800" cy="23200" r="334.646" /> 
<circle cx="62800" cy="24200" r="334.646" /> 
<circle cx="62800" cy="23200" r="334.646" /> 
<circle cx="61800" cy="24200" r="334.646" /> 
<circle cx="61800" cy="23200" r="334.646" /> 
<circle cx="60800" cy="24200" r="334.646" /> 
<path style="fill:#000000; fill-opacity:1.0; 
stroke:#000000; stroke-width:0; stroke-opacity:1; 
stroke-linecap:round; stroke-linejoin:round;fill-rule:evenodd;"
d="M 61134.6,23534.6
60465.4,23534.6
60465.4,22865.4
61134.6,22865.4
Z" /> 
</g>
<g >
</g>
<g style="fill:#000000; fill-opacity:1.0; 
stroke:#000000; stroke-width:0; stroke-opacity:1; 
stroke-linecap:round; stroke-linejoin:round;">
<circle cx="69800" cy="19800" r="334.646" /> 
<circle cx="69800" cy="18800" r="334.646" /> 
<circle cx="68800" cy="19800" r="334.646" /> 
<circle cx="68800" cy="18800" r="334.646" /> 
<circle cx="67800" cy="19800" r="334.646" /> 
<circle cx="67800" cy="18800" r="334.646" /> 
<circle cx="66800" cy="19800" r="334.646" /> 
<circle cx="66800" cy="18800" r="334.646" /> 
<circle cx="65800" cy="19800" r="334.646" /> 
<circle cx="65800" cy="18800" r="334.646" /> 
<circle cx="64800" cy="19800" r="334.646" /> 
<circle cx="64800" cy="18800" r="334.646" /> 
<circle cx="63800" cy="19800" r="334.646" /> 
<circle cx="63800" cy="18800" r="334.646" /> 
<circle cx="62800" cy="19800" r="334.646" /> 
<circle cx="62800" cy="18800" r="334.646" /> 
<circle cx="61800" cy="19800" r="334.646" /> 
<circle cx="61800" cy="18800" r="334.646" /> 
<circle cx="60800" cy="19800" r="334.646" /> 
<path style="fill:#000000; fill-opacity:1.0; 
stroke:#000000; stroke-width:0; stroke-opacity:1; 
stroke-linecap:round; stroke-linejoin:round;fill-rule:evenodd;"
d="M 61134.6,19134.6
60465.4,19134.6
60465.4,18465.4
61134.6,18465.4
Z" /> 
</g>
<g >
</g>
<g style="fill:#000000; fill-opacity:1.0; 
stroke:#000000; stroke-width:0; stroke-opacity:1; 
stroke-linecap:round; stroke-linejoin:round;">
<circle cx="61600" cy="27800" r="334.646" /> 
<circle cx="62600" cy="27800" r="334.646" /> 
<circle cx="63600" cy="27800" r="334.646" /> 
<circle cx="64600" cy="27800" r="334.646" /> 
<circle cx="65600" cy="27800" r="334.646" /> 
<circle cx="66600" cy="27800" r="334.646" /> 
<circle cx="67600" cy="27800" r="334.646" /> 
<path style="fill:#000000; fill-opacity:1.0; 
stroke:#000000; stroke-width:0; stroke-opacity:1; 
stroke-linecap:round; stroke-linejoin:round;fill-rule:evenodd;"
d="M 68265.4,27465.4
68934.6,27465.4
68934.6,28134.6
68265.4,28134.6
Z" /> 
</g>
<g >
</g>
<g style="fill:#000000; fill-opacity:1.0; 
stroke:#000000; stroke-width:0; stroke-opacity:1; 
stroke-linecap:round; stroke-linejoin:round;">
<circle cx="56624.7" cy="15531.5" r="334.646" /> 
<circle cx="57047.3" cy="14625.2" r="334.646" /> 
<circle cx="57469.9" cy="13718.9" r="334.646" /> 
<circle cx="57892.6" cy="12812.6" r="334.646" /> 
<circle cx="58315.2" cy="11906.3" r="334.646" /> 
<path style="fill:#000000; fill-opacity:1.0; 
stroke:#000000; stroke-width:0; stroke-opacity:1; 
stroke-linecap:round; stroke-linejoin:round;fill-rule:evenodd;"
d="M 58293.1,11161.9
58575.9,10555.3
59182.5,10838.1
58899.7,11444.7
Z" /> 
</g>
<g >
</g>
<g style="fill:#000000; fill-opacity:1.0; 
stroke:#000000; stroke-width:0; stroke-opacity:1; 
stroke-linecap:round; stroke-linejoin:round;">
<circle cx="67800" cy="10600" r="334.646" /> 
<circle cx="66800" cy="10600" r="334.646" /> 
<circle cx="65800" cy="10600" r="334.646" /> 
<circle cx="64800" cy="10600" r="334.646" /> 
<circle cx="63800" cy="10600" r="334.646" /> 
<path style="fill:#000000; fill-opacity:1.0; 
stroke:#000000; stroke-width:0; stroke-opacity:1; 
stroke-linecap:round; stroke-linejoin:round;fill-rule:evenodd;"
d="M 63134.6,10934.6
62465.4,10934.6
62465.4,10265.4
63134.6,10265.4
Z" /> 
</g>
<g >
</g>
<g style="fill:#000000; fill-opacity:1.0; 
stroke:#000000; stroke-width:0; stroke-opacity:1; 
stroke-linecap:round; stroke-linejoin:round;">
<circle cx="61600" cy="9800" r="226.378" /> 
</g>
<g style="fill:#000000; fill-opacity:1.0; 
stroke:#000000; stroke-width:39.3701; stroke-opacity:1; 
stroke-linecap:round; stroke-linejoin:round;">
</g>
<g style="fill:#000000; fill-opacity:1.0; 
stroke:#000000; stroke-width:0; stroke-opacity:1; 
stroke-linecap:round; stroke-linejoin:round;">
<circle cx="56569.3" cy="12200" r="226.378" /> 
</g>
<g style="fill:#000000; fill-opacity:1.0; 
stroke:#000000; stroke-width:39.3701; stroke-opacity:1; 
stroke-linecap:round; stroke-linejoin:round;">
</g>
<g style="fill:#000000; fill-opacity:1.0; 
stroke:#000000; stroke-width:0; stroke-opacity:1; 
stroke-linecap:round; stroke-linejoin:round;">
<circle cx="60600" cy="13000" r="226.378" /> 
</g>
<g style="fill:#000000; fill-opacity:1.0; 
stroke:#000000; stroke-width:39.3701; stroke-opacity:1; 
stroke-linecap:round; stroke-linejoin:round;">
</g>
<g style="fill:#000000; fill-opacity:1.0; 
stroke:#000000; stroke-width:0; stroke-opacity:1; 
stroke-linecap:round; stroke-linejoin:round;">
<circle cx="65400" cy="15400" r="226.378" /> 
</g>
<g style="fill:#000000; fill-opacity:1.0; 
stroke:#000000; stroke-width:39.3701; stroke-opacity:1; 
stroke-linecap:round; stroke-linejoin:round;">
</g>
<g style="fill:#000000; fill-opacity:1.0; 
stroke:#000000; stroke-width:0; stroke-opacity:1; 
stroke-linecap:round; stroke-linejoin:round;">
<circle cx="71600" cy="12800" r="226.378" /> 
</g>
<g style="fill:#000000; fill-opacity:1.0; 
stroke:#000000; stroke-width:39.3701; stroke-opacity:1; 
stroke-linecap:round; stroke-linejoin:round;">
</g>
<g style="fill:#000000; fill-opacity:1.0; 
stroke:#000000; stroke-width:0; stroke-opacity:1; 
stroke-linecap:round; stroke-linejoin:round;">
<circle cx="60657.9" cy="16400" r="255.906" /> 
</g>
<g style="fill:#000000; fill-opacity:1.0; 
stroke:#000000; stroke-width:39.3701; stroke-opacity:1; 
stroke-linecap:round; stroke-linejoin:round;">
</g>
<g style="fill:#000000; fill-opacity:1.0; 
stroke:#000000; stroke-width:0; stroke-opacity:1; 
stroke-linecap:round; stroke-linejoin:round;">
<circle cx="58800" cy="15000" r="226.378" /> 
</g>
<g style="fill:#000000; fill-opacity:1.0; 
stroke:#000000; stroke-width:39.3701; stroke-opacity:1; 
stroke-linecap:round; stroke-linejoin:round;">
</g>
<g style="fill:#000000; fill-opacity:1.0; 
stroke:#000000; stroke-width:0; stroke-opacity:1; 
stroke-linecap:round; stroke-linejoin:round;">
<circle cx="58000" cy="24800" r="226.378" /> 
</g>
<g style="fill:#000000; fill-opacity:1.0; 
stroke:#000000; stroke-width:39.3701; stroke-opacity:1; 
stroke-linecap:round; stroke-linejoin:round;">
</g>
<g style="fill:#000000; fill-opacity:1.0; 
stroke:#000000; stroke-width:0; stroke-opacity:1; 
stroke-linecap:round; stroke-linejoin:round;">
<circle cx="62800" cy="26200" r="226.378" /> 
</g>
<g style="fill:#000000; fill-opacity:1.0; 
stroke:#000000; stroke-width:39.3701; stroke-opacity:1; 
stroke-linecap:round; stroke-linejoin:round;">
</g>
<g style="fill:#000000; fill-opacity:1.0; 
stroke:#000000; stroke-width:0; stroke-opacity:1; 
stroke-linecap:round; stroke-linejoin:round;">
<circle cx="66336" cy="15400" r="226.378" /> 
</g>
<g style="fill:#000000; fill-opacity:1.0; 
stroke:#000000; stroke-width:39.3701; stroke-opacity:1; 
stroke-linecap:round; stroke-linejoin:round;">
</g>
<g style="fill:#000000; fill-opacity:1.0; 
stroke:#000000; stroke-width:0; stroke-opacity:1; 
stroke-linecap:round; stroke-linejoin:round;">
<circle cx="66400" cy="21200" r="226.378" /> 
</g>
<g style="fill:#000000; fill-opacity:1.0; 
stroke:#000000; stroke-width:39.3701; stroke-opacity:1; 
stroke-linecap:round; stroke-linejoin:round;">
</g>
<g >
</g>
<g style="fill:#000000; fill-opacity:1.0; 
stroke:#000000; stroke-width:39.3701; stroke-opacity:1; 
stroke-linecap:round; stroke-linejoin:round;">
</g>
<g style="fill:#000000; fill-opacity:1.0; 
stroke:#000000; stroke-width:0; stroke-opacity:1; 
stroke-linecap:round; stroke-linejoin:round;">
<circle cx="66800" cy="8400" r="98.4252" /> 
</g>
<g style="fill:#000000; fill-opacity:1.0; 
stroke:#000000; stroke-width:196.85; stroke-opacity:1; 
stroke-linecap:round; stroke-linejoin:round;">
</g>
<g style="fill:#000000; fill-opacity:0.0; 
stroke:#000000; stroke-width:196.85; stroke-opacity:1; 
stroke-linecap:round; stroke-linejoin:round;">
<path d="M61600 9000
L61600 9800
" />
<path d="M62200 8400
L61600 9000
" />
<path d="M71400 8400
L62200 8400
" />
<path d="M73887 10887
L71400 8400
" />
<path d="M73887 14190
L73887 10887
" />
<path d="M73552 14525
L73887 14190
" />
<path d="M58969 9800
L56569 12200
" />
<path d="M61600 9800
L58969 9800
" />
</g>
<g style="fill:#000000; fill-opacity:1.0; 
stroke:#000000; stroke-width:0; stroke-opacity:1; 
stroke-linecap:round; stroke-linejoin:round;">
<circle cx="56569.3" cy="12200" r="98.4252" /> 
</g>
<g style="fill:#000000; fill-opacity:1.0; 
stroke:#000000; stroke-width:196.85; stroke-opacity:1; 
stroke-linecap:round; stroke-linejoin:round;">
</g>
<g style="fill:#000000; fill-opacity:0.0; 
stroke:#000000; stroke-width:196.85; stroke-opacity:1; 
stroke-linecap:round; stroke-linejoin:round;">
<path d="M58200 14448
L57469 13718
" />
<path d="M59648 13000
L58200 14448
" />
<path d="M60600 13000
L59648 13000
" />
<path d="M57151 13400
L57469 13718
" />
<path d="M55400 16000
L55400 14200
" />
<path d="M56200 16800
L55400 16000
" />
<path d="M55400 14200
L56200 13400
" />
<path d="M56200 23800
L56200 16800
" />
<path d="M56200 13400
L57151 13400
" />
<path d="M59400 27000
L56200 23800
" />
<path d="M64800 27000
L59400 27000
" />
<path d="M65600 27800
L64800 27000
" />
</g>
<g style="fill:#000000; fill-opacity:1.0; 
stroke:#000000; stroke-width:0; stroke-opacity:1; 
stroke-linecap:round; stroke-linejoin:round;">
<circle cx="65400" cy="15400" r="98.4252" /> 
</g>
<g style="fill:#000000; fill-opacity:1.0; 
stroke:#000000; stroke-width:196.85; stroke-opacity:1; 
stroke-linecap:round; stroke-linejoin:round;">
</g>
<g style="fill:#000000; fill-opacity:0.0; 
stroke:#000000; stroke-width:196.85; stroke-opacity:1; 
stroke-linecap:round; stroke-linejoin:round;">
<path d="M66000 14800
L65400 15400
" />
<path d="M71600 14800
L66000 14800
" />
<path d="M71600 12800
L71600 14800
" />
<path d="M71948 14800
L73130 13618
" />
<path d="M71600 14800
L71948 14800
" />
</g>
<g style="fill:#000000; fill-opacity:0.0; 
stroke:#000000; stroke-width:590.551; stroke-opacity:1; 
stroke-linecap:round; stroke-linejoin:round;">
<path d="M67600 27800
L67600 26000
" />
<path d="M67600 26000
L67000 25400
" />
<path d="M67000 25400
L66000 25400
" />
<path d="M65800 25200
L65800 24200
" />
<path d="M66000 25400
L65800 25200
" />
<path d="M58300 22865
L58300 21917
" />
<path d="M60834 25400
L58300 22865
" />
<path d="M66000 25400
L60834 25400
" />
<path d="M72284 11806
L66352 11806
" />
<path d="M63800 10600
L63800 11073
" />
<path d="M65629 11970
L65793 11806
" />
<path d="M65629 12693
L65629 11970
" />
<path d="M65793 11806
L66352 11806
" />
<path d="M64533 11806
L65793 11806
" />
<path d="M63693 11906
L64163 11436
" />
<path d="M58315 11906
L63693 11906
" />
<path d="M64163 11436
L64533 11806
" />
<path d="M63800 11073
L64163 11436
" />
<path d="M65629 14027
L64637 15020
" />
<path d="M65629 12693
L65629 14027
" />
<path d="M61420 15637
L64637 15637
" />
<path d="M64637 15637
L64637 16646
" />
<path d="M60657 16400
L61420 15637
" />
<path d="M64637 15020
L64637 15637
" />
<path d="M62400 11000
L62800 10600
" />
<path d="M58737 11000
L62400 11000
" />
<path d="M71862 10900
L70900 10900
" />
<path d="M70900 10900
L69200 9200
" />
<path d="M62800 9674
L62800 10600
" />
<path d="M63274 9200
L62800 9674
" />
<path d="M69200 9200
L63274 9200
" />
<path d="M68600 27800
L68600 27965
" />
<path d="M62600 27800
L62600 29200
" />
<path d="M62600 29200
L63200 29800
" />
<path d="M63200 29800
L68000 29800
" />
<path d="M68600 29200
L68600 27800
" />
<path d="M68000 29800
L68600 29200
" />
<path d="M58300 20500
L59300 20500
" />
<path d="M59300 20500
L60200 21400
" />
<path d="M60200 21400
L65000 21400
" />
<path d="M65800 22200
L65800 23200
" />
<path d="M65000 21400
L65800 22200
" />
<path d="M58300 20500
L58300 17100
" />
<path d="M58300 17100
L60800 14600
" />
<path d="M60800 14600
L64000 14600
" />
<path d="M64629 13970
L64629 12693
" />
<path d="M64000 14600
L64629 13970
" />
</g>
<g style="fill:#000000; fill-opacity:0.0; 
stroke:#000000; stroke-width:196.85; stroke-opacity:1; 
stroke-linecap:round; stroke-linejoin:round;">
<path d="M62629 12693
L62629 12770
" />
<path d="M62629 12770
L61800 13600
" />
<path d="M61800 13600
L60200 13600
" />
<path d="M60200 13600
L58800 15000
" />
</g>
<g style="fill:#000000; fill-opacity:1.0; 
stroke:#000000; stroke-width:0; stroke-opacity:1; 
stroke-linecap:round; stroke-linejoin:round;">
<circle cx="58800" cy="15000" r="98.4252" /> 
</g>
<g style="fill:#000000; fill-opacity:1.0; 
stroke:#000000; stroke-width:196.85; stroke-opacity:1; 
stroke-linecap:round; stroke-linejoin:round;">
</g>
<g style="fill:#000000; fill-opacity:0.0; 
stroke:#000000; stroke-width:196.85; stroke-opacity:1; 
stroke-linecap:round; stroke-linejoin:round;">
<path d="M58000 24800
L59400 26200
" />
<path d="M59400 26200
L62800 26200
" />
</g>
<g style="fill:#000000; fill-opacity:1.0; 
stroke:#000000; stroke-width:0; stroke-opacity:1; 
stroke-linecap:round; stroke-linejoin:round;">
<circle cx="62800" cy="26200" r="98.4252" /> 
</g>
<g style="fill:#000000; fill-opacity:1.0; 
stroke:#000000; stroke-width:196.85; stroke-opacity:1; 
stroke-linecap:round; stroke-linejoin:round;">
</g>
<g style="fill:#000000; fill-opacity:0.0; 
stroke:#000000; stroke-width:196.85; stroke-opacity:1; 
stroke-linecap:round; stroke-linejoin:round;">
<path d="M66336 15400
L67215 15400
" />
<path d="M67215 15400
L69600 15400
" />
<path d="M69600 15400
L70800 16600
" />
<path d="M70800 19615
L69215 21200
" />
<path d="M70800 16600
L70800 19615
" />
<path d="M69215 21200
L66400 21200
" />
</g>
<g style="fill:#000000; fill-opacity:1.0; 
stroke:#000000; stroke-width:0; stroke-opacity:1; 
stroke-linecap:round; stroke-linejoin:round;">
<circle cx="66400" cy="21200" r="98.4252" /> 
</g>
<g >
</g>
</g> 
</svg>
