<?xml version="1.0" standalone="no"?>
 <!DOCTYPE svg PUBLIC "-//W3C//DTD SVG 1.1//EN" 
 "http://www.w3.org/Graphics/SVG/1.1/DTD/svg11.dtd"> 
<svg
  xmlns:svg="http://www.w3.org/2000/svg"
  xmlns="http://www.w3.org/2000/svg"
  xmlns:xlink="http://www.w3.org/1999/xlink"
  version="1.1"
  width="21.000720cm" height="29.700220cm" viewBox="0 0 82680 116930">
<title>SVG Picture created as only pins-B_Cu.svg date 2021/12/05 16:16:33 </title>
  <desc>Picture generated by PCBNEW </desc>
<g style="fill:#000000; fill-opacity:1;stroke:#000000; stroke-opacity:1;
stroke-linecap:round; stroke-linejoin:round;"
 transform="translate(0 0) scale(1 1)">
</g>
<g style="fill:#000000; fill-opacity:0.0; 
stroke:#000000; stroke-width:-0.000393701; stroke-opacity:1; 
stroke-linecap:round; stroke-linejoin:round;">
<g >
</g>
<g >
</g>
<g >
</g>
<g >
</g>
<g >
</g>
<g >
</g>
<g >
</g>
<g >
</g>
<g >
</g>
<g >
</g>
<g >
</g>
<g >
</g>
<g >
</g>
<g >
</g>
<g >
</g>
<g >
</g>
<g >
</g>
<g >
</g>
<g >
</g>
<g style="fill:#000000; fill-opacity:0.0; 
stroke:#000000; stroke-width:-0.000393701; stroke-opacity:1; 
stroke-linecap:round; stroke-linejoin:round;">
</g>
<g style="fill:#000000; fill-opacity:1.0; 
stroke:#000000; stroke-width:0; stroke-opacity:1; 
stroke-linecap:round; stroke-linejoin:round;">
<circle cx="73975.3" cy="15431.5" r="334.646" /> 
<circle cx="73552.7" cy="14525.2" r="334.646" /> 
<circle cx="73130.1" cy="13618.9" r="334.646" /> 
<circle cx="72707.4" cy="12712.6" r="334.646" /> 
<circle cx="72284.8" cy="11806.3" r="334.646" /> 
<path style="fill:#000000; fill-opacity:1.0; 
stroke:#000000; stroke-width:0; stroke-opacity:1; 
stroke-linecap:round; stroke-linejoin:round;fill-rule:evenodd;"
d="M 71700.3,11344.7
71417.5,10738.1
72024.1,10455.3
72306.9,11061.9
Z" /> 
</g>
<g >
</g>
<g style="fill:#000000; fill-opacity:1.0; 
stroke:#000000; stroke-width:0; stroke-opacity:1; 
stroke-linecap:round; stroke-linejoin:round;">
<circle cx="67637" cy="16646.7" r="334.646" /> 
<circle cx="66637" cy="16646.7" r="334.646" /> 
<circle cx="65637" cy="16646.7" r="334.646" /> 
<circle cx="64637" cy="16646.7" r="334.646" /> 
<circle cx="63637" cy="16646.7" r="334.646" /> 
<path style="fill:#000000; fill-opacity:1.0; 
stroke:#000000; stroke-width:0; stroke-opacity:1; 
stroke-linecap:round; stroke-linejoin:round;fill-rule:evenodd;"
d="M 62971.7,16981.3
62302.4,16981.3
62302.4,16312
62971.7,16312
Z" /> 
</g>
<g >
</g>
<g style="fill:#000000; fill-opacity:1.0; 
stroke:#000000; stroke-width:0; stroke-opacity:1; 
stroke-linecap:round; stroke-linejoin:round;">
<circle cx="58300" cy="21917.3" r="314.961" /> 
</g>
<g style="fill:#000000; fill-opacity:1.0; 
stroke:#000000; stroke-width:39.3701; stroke-opacity:1; 
stroke-linecap:round; stroke-linejoin:round;">
</g>
<g style="fill:#000000; fill-opacity:1.0; 
stroke:#000000; stroke-width:0; stroke-opacity:1; 
stroke-linecap:round; stroke-linejoin:round;">
<path style="fill:#000000; fill-opacity:1.0; 
stroke:#000000; stroke-width:0; stroke-opacity:1; 
stroke-linecap:round; stroke-linejoin:round;fill-rule:evenodd;"
d="M 58526.3,20185.5
58535.9,20186.9
58545.2,20189.3
58554.3,20192.5
58563,20196.6
58571.3,20201.6
58579,20207.3
58586.2,20213.8
58592.7,20221
58598.4,20228.7
58603.4,20237
58607.5,20245.7
58610.7,20254.8
58613.1,20264.1
58614.5,20273.7
58615,20283.3
58615,20716.7
58614.5,20726.3
58613.1,20735.9
58610.7,20745.2
58607.5,20754.3
58603.4,20763
58598.4,20771.3
58592.7,20779
58586.2,20786.2
58579,20792.7
58571.3,20798.4
58563,20803.4
58554.3,20807.5
58545.2,20810.7
58535.9,20813.1
58526.3,20814.5
58516.7,20815
58083.3,20815
58073.7,20814.5
58064.1,20813.1
58054.8,20810.7
58045.7,20807.5
58037,20803.4
58028.7,20798.4
58021,20792.7
58013.8,20786.2
58007.3,20779
58001.6,20771.3
57996.6,20763
57992.5,20754.3
57989.3,20745.2
57986.9,20735.9
57985.5,20726.3
57985,20716.7
57985,20283.3
57985.5,20273.7
57986.9,20264.1
57989.3,20254.8
57992.5,20245.7
57996.6,20237
58001.6,20228.7
58007.3,20221
58013.8,20213.8
58021,20207.3
58028.7,20201.6
58037,20196.6
58045.7,20192.5
58054.8,20189.3
58064.1,20186.9
58073.7,20185.5
58083.3,20185
58516.7,20185
Z" /> 
</g>
<g >
</g>
<g style="fill:#000000; fill-opacity:1.0; 
stroke:#000000; stroke-width:0; stroke-opacity:1; 
stroke-linecap:round; stroke-linejoin:round;">
<circle cx="67629.9" cy="12693.9" r="334.646" /> 
<circle cx="66629.9" cy="12693.9" r="334.646" /> 
<circle cx="65629.9" cy="12693.9" r="334.646" /> 
<circle cx="64629.9" cy="12693.9" r="334.646" /> 
<circle cx="63629.9" cy="12693.9" r="334.646" /> 
<path style="fill:#000000; fill-opacity:1.0; 
stroke:#000000; stroke-width:0; stroke-opacity:1; 
stroke-linecap:round; stroke-linejoin:round;fill-rule:evenodd;"
d="M 62964.6,13028.5
62295.3,13028.5
62295.3,12359.2
62964.6,12359.2
Z" /> 
</g>
<g >
</g>
<g style="fill:#000000; fill-opacity:1.0; 
stroke:#000000; stroke-width:0; stroke-opacity:1; 
stroke-linecap:round; stroke-linejoin:round;">
<circle cx="69800" cy="24200" r="334.646" /> 
<circle cx="69800" cy="23200" r="334.646" /> 
<circle cx="68800" cy="24200" r="334.646" /> 
<circle cx="68800" cy="23200" r="334.646" /> 
<circle cx="67800" cy="24200" r="334.646" /> 
<circle cx="67800" cy="23200" r="334.646" /> 
<circle cx="66800" cy="24200" r="334.646" /> 
<circle cx="66800" cy="23200" r="334.646" /> 
<circle cx="65800" cy="24200" r="334.646" /> 
<circle cx="65800" cy="23200" r="334.646" /> 
<circle cx="64800" cy="24200" r="334.646" /> 
<circle cx="64800" cy="23200" r="334.646" /> 
<circle cx="63800" cy="24200" r="334.646" /> 
<circle cx="63800" cy="23200" r="334.646" /> 
<circle cx="62800" cy="24200" r="334.646" /> 
<circle cx="62800" cy="23200" r="334.646" /> 
<circle cx="61800" cy="24200" r="334.646" /> 
<circle cx="61800" cy="23200" r="334.646" /> 
<circle cx="60800" cy="24200" r="334.646" /> 
<path style="fill:#000000; fill-opacity:1.0; 
stroke:#000000; stroke-width:0; stroke-opacity:1; 
stroke-linecap:round; stroke-linejoin:round;fill-rule:evenodd;"
d="M 61134.6,23534.6
60465.4,23534.6
60465.4,22865.4
61134.6,22865.4
Z" /> 
</g>
<g >
</g>
<g style="fill:#000000; fill-opacity:1.0; 
stroke:#000000; stroke-width:0; stroke-opacity:1; 
stroke-linecap:round; stroke-linejoin:round;">
<circle cx="69800" cy="19800" r="334.646" /> 
<circle cx="69800" cy="18800" r="334.646" /> 
<circle cx="68800" cy="19800" r="334.646" /> 
<circle cx="68800" cy="18800" r="334.646" /> 
<circle cx="67800" cy="19800" r="334.646" /> 
<circle cx="67800" cy="18800" r="334.646" /> 
<circle cx="66800" cy="19800" r="334.646" /> 
<circle cx="66800" cy="18800" r="334.646" /> 
<circle cx="65800" cy="19800" r="334.646" /> 
<circle cx="65800" cy="18800" r="334.646" /> 
<circle cx="64800" cy="19800" r="334.646" /> 
<circle cx="64800" cy="18800" r="334.646" /> 
<circle cx="63800" cy="19800" r="334.646" /> 
<circle cx="63800" cy="18800" r="334.646" /> 
<circle cx="62800" cy="19800" r="334.646" /> 
<circle cx="62800" cy="18800" r="334.646" /> 
<circle cx="61800" cy="19800" r="334.646" /> 
<circle cx="61800" cy="18800" r="334.646" /> 
<circle cx="60800" cy="19800" r="334.646" /> 
<path style="fill:#000000; fill-opacity:1.0; 
stroke:#000000; stroke-width:0; stroke-opacity:1; 
stroke-linecap:round; stroke-linejoin:round;fill-rule:evenodd;"
d="M 61134.6,19134.6
60465.4,19134.6
60465.4,18465.4
61134.6,18465.4
Z" /> 
</g>
<g >
</g>
<g style="fill:#000000; fill-opacity:1.0; 
stroke:#000000; stroke-width:0; stroke-opacity:1; 
stroke-linecap:round; stroke-linejoin:round;">
<circle cx="61600" cy="27800" r="334.646" /> 
<circle cx="62600" cy="27800" r="334.646" /> 
<circle cx="63600" cy="27800" r="334.646" /> 
<circle cx="64600" cy="27800" r="334.646" /> 
<circle cx="65600" cy="27800" r="334.646" /> 
<circle cx="66600" cy="27800" r="334.646" /> 
<circle cx="67600" cy="27800" r="334.646" /> 
<path style="fill:#000000; fill-opacity:1.0; 
stroke:#000000; stroke-width:0; stroke-opacity:1; 
stroke-linecap:round; stroke-linejoin:round;fill-rule:evenodd;"
d="M 68265.4,27465.4
68934.6,27465.4
68934.6,28134.6
68265.4,28134.6
Z" /> 
</g>
<g >
</g>
<g style="fill:#000000; fill-opacity:1.0; 
stroke:#000000; stroke-width:0; stroke-opacity:1; 
stroke-linecap:round; stroke-linejoin:round;">
<circle cx="56624.7" cy="15531.5" r="334.646" /> 
<circle cx="57047.3" cy="14625.2" r="334.646" /> 
<circle cx="57469.9" cy="13718.9" r="334.646" /> 
<circle cx="57892.6" cy="12812.6" r="334.646" /> 
<circle cx="58315.2" cy="11906.3" r="334.646" /> 
<path style="fill:#000000; fill-opacity:1.0; 
stroke:#000000; stroke-width:0; stroke-opacity:1; 
stroke-linecap:round; stroke-linejoin:round;fill-rule:evenodd;"
d="M 58293.1,11161.9
58575.9,10555.3
59182.5,10838.1
58899.7,11444.7
Z" /> 
</g>
<g >
</g>
<g style="fill:#000000; fill-opacity:1.0; 
stroke:#000000; stroke-width:0; stroke-opacity:1; 
stroke-linecap:round; stroke-linejoin:round;">
<circle cx="67800" cy="10600" r="334.646" /> 
<circle cx="66800" cy="10600" r="334.646" /> 
<circle cx="65800" cy="10600" r="334.646" /> 
<circle cx="64800" cy="10600" r="334.646" /> 
<circle cx="63800" cy="10600" r="334.646" /> 
<path style="fill:#000000; fill-opacity:1.0; 
stroke:#000000; stroke-width:0; stroke-opacity:1; 
stroke-linecap:round; stroke-linejoin:round;fill-rule:evenodd;"
d="M 63134.6,10934.6
62465.4,10934.6
62465.4,10265.4
63134.6,10265.4
Z" /> 
</g>
<g >
</g>
<g style="fill:#000000; fill-opacity:1.0; 
stroke:#000000; stroke-width:0; stroke-opacity:1; 
stroke-linecap:round; stroke-linejoin:round;">
<circle cx="61600" cy="9800" r="226.378" /> 
</g>
<g style="fill:#000000; fill-opacity:1.0; 
stroke:#000000; stroke-width:39.3701; stroke-opacity:1; 
stroke-linecap:round; stroke-linejoin:round;">
</g>
<g style="fill:#000000; fill-opacity:1.0; 
stroke:#000000; stroke-width:0; stroke-opacity:1; 
stroke-linecap:round; stroke-linejoin:round;">
<circle cx="56569.3" cy="12200" r="226.378" /> 
</g>
<g style="fill:#000000; fill-opacity:1.0; 
stroke:#000000; stroke-width:39.3701; stroke-opacity:1; 
stroke-linecap:round; stroke-linejoin:round;">
</g>
<g style="fill:#000000; fill-opacity:1.0; 
stroke:#000000; stroke-width:0; stroke-opacity:1; 
stroke-linecap:round; stroke-linejoin:round;">
<circle cx="60600" cy="13000" r="226.378" /> 
</g>
<g style="fill:#000000; fill-opacity:1.0; 
stroke:#000000; stroke-width:39.3701; stroke-opacity:1; 
stroke-linecap:round; stroke-linejoin:round;">
</g>
<g style="fill:#000000; fill-opacity:1.0; 
stroke:#000000; stroke-width:0; stroke-opacity:1; 
stroke-linecap:round; stroke-linejoin:round;">
<circle cx="65400" cy="15400" r="226.378" /> 
</g>
<g style="fill:#000000; fill-opacity:1.0; 
stroke:#000000; stroke-width:39.3701; stroke-opacity:1; 
stroke-linecap:round; stroke-linejoin:round;">
</g>
<g style="fill:#000000; fill-opacity:1.0; 
stroke:#000000; stroke-width:0; stroke-opacity:1; 
stroke-linecap:round; stroke-linejoin:round;">
<circle cx="71600" cy="12800" r="226.378" /> 
</g>
<g style="fill:#000000; fill-opacity:1.0; 
stroke:#000000; stroke-width:39.3701; stroke-opacity:1; 
stroke-linecap:round; stroke-linejoin:round;">
</g>
<g style="fill:#000000; fill-opacity:1.0; 
stroke:#000000; stroke-width:0; stroke-opacity:1; 
stroke-linecap:round; stroke-linejoin:round;">
<circle cx="60657.9" cy="16400" r="255.906" /> 
</g>
<g style="fill:#000000; fill-opacity:1.0; 
stroke:#000000; stroke-width:39.3701; stroke-opacity:1; 
stroke-linecap:round; stroke-linejoin:round;">
</g>
<g style="fill:#000000; fill-opacity:1.0; 
stroke:#000000; stroke-width:0; stroke-opacity:1; 
stroke-linecap:round; stroke-linejoin:round;">
<circle cx="58800" cy="15000" r="226.378" /> 
</g>
<g style="fill:#000000; fill-opacity:1.0; 
stroke:#000000; stroke-width:39.3701; stroke-opacity:1; 
stroke-linecap:round; stroke-linejoin:round;">
</g>
<g style="fill:#000000; fill-opacity:1.0; 
stroke:#000000; stroke-width:0; stroke-opacity:1; 
stroke-linecap:round; stroke-linejoin:round;">
<circle cx="58000" cy="24800" r="226.378" /> 
</g>
<g style="fill:#000000; fill-opacity:1.0; 
stroke:#000000; stroke-width:39.3701; stroke-opacity:1; 
stroke-linecap:round; stroke-linejoin:round;">
</g>
<g style="fill:#000000; fill-opacity:1.0; 
stroke:#000000; stroke-width:0; stroke-opacity:1; 
stroke-linecap:round; stroke-linejoin:round;">
<circle cx="62800" cy="26200" r="226.378" /> 
</g>
<g style="fill:#000000; fill-opacity:1.0; 
stroke:#000000; stroke-width:39.3701; stroke-opacity:1; 
stroke-linecap:round; stroke-linejoin:round;">
</g>
<g style="fill:#000000; fill-opacity:1.0; 
stroke:#000000; stroke-width:0; stroke-opacity:1; 
stroke-linecap:round; stroke-linejoin:round;">
<circle cx="66336" cy="15400" r="226.378" /> 
</g>
<g style="fill:#000000; fill-opacity:1.0; 
stroke:#000000; stroke-width:39.3701; stroke-opacity:1; 
stroke-linecap:round; stroke-linejoin:round;">
</g>
<g style="fill:#000000; fill-opacity:1.0; 
stroke:#000000; stroke-width:0; stroke-opacity:1; 
stroke-linecap:round; stroke-linejoin:round;">
<circle cx="66400" cy="21200" r="226.378" /> 
</g>
<g style="fill:#000000; fill-opacity:1.0; 
stroke:#000000; stroke-width:39.3701; stroke-opacity:1; 
stroke-linecap:round; stroke-linejoin:round;">
</g>
<g >
</g>
<g style="fill:#000000; fill-opacity:1.0; 
stroke:#000000; stroke-width:39.3701; stroke-opacity:1; 
stroke-linecap:round; stroke-linejoin:round;">
</g>
<g style="fill:#000000; fill-opacity:1.0; 
stroke:#000000; stroke-width:196.85; stroke-opacity:1; 
stroke-linecap:round; stroke-linejoin:round;">
</g>
<g style="fill:#000000; fill-opacity:0.0; 
stroke:#000000; stroke-width:196.85; stroke-opacity:1; 
stroke-linecap:round; stroke-linejoin:round;">
<path d="M74309 11909
L72200 9800
" />
<path d="M74309 15096
L74309 11909
" />
<path d="M72200 9800
L68600 9800
" />
<path d="M73975 15431
L74309 15096
" />
<path d="M68600 9800
L67800 9800
" />
<path d="M67800 9800
L67800 10600
" />
<path d="M67800 9400
L67800 9800
" />
<path d="M67600 9200
L67800 9400
" />
<path d="M58913 9200
L67600 9200
" />
<path d="M56126 11987
L58913 9200
" />
<path d="M56126 15033
L56126 11987
" />
<path d="M56624 15531
L56126 15033
" />
<path d="M66800 10600
L66800 10000
" />
<path d="M66800 10000
L66600 9800
" />
<path d="M66600 9800
L61600 9800
" />
<path d="M56569 14147
L57047 14625
" />
<path d="M56569 12200
L56569 14147
" />
<path d="M63600 14000
L61600 14000
" />
<path d="M63637 14037
L63600 14000
" />
<path d="M61600 14000
L60600 13000
" />
</g>
<g style="fill:#000000; fill-opacity:1.0; 
stroke:#000000; stroke-width:0; stroke-opacity:1; 
stroke-linecap:round; stroke-linejoin:round;">
<circle cx="60600" cy="13000" r="98.4252" /> 
</g>
<g style="fill:#000000; fill-opacity:1.0; 
stroke:#000000; stroke-width:196.85; stroke-opacity:1; 
stroke-linecap:round; stroke-linejoin:round;">
</g>
<g style="fill:#000000; fill-opacity:0.0; 
stroke:#000000; stroke-width:196.85; stroke-opacity:1; 
stroke-linecap:round; stroke-linejoin:round;">
<path d="M63674 15400
L63637 15437
" />
<path d="M65400 15400
L63674 15400
" />
<path d="M63637 15437
L63637 14037
" />
<path d="M63637 16646
L63637 15437
" />
<path d="M66485 11285
L70085 11285
" />
<path d="M65800 10600
L66485 11285
" />
<path d="M70085 11285
L71600 12800
" />
</g>
<g style="fill:#000000; fill-opacity:1.0; 
stroke:#000000; stroke-width:0; stroke-opacity:1; 
stroke-linecap:round; stroke-linejoin:round;">
<circle cx="71600" cy="12800" r="98.4252" /> 
</g>
<g style="fill:#000000; fill-opacity:1.0; 
stroke:#000000; stroke-width:196.85; stroke-opacity:1; 
stroke-linecap:round; stroke-linejoin:round;">
</g>
<g style="fill:#000000; fill-opacity:0.0; 
stroke:#000000; stroke-width:196.85; stroke-opacity:1; 
stroke-linecap:round; stroke-linejoin:round;">
<path d="M66600 27800
L68000 26400
" />
<path d="M68000 26400
L70400 26400
" />
<path d="M70400 26400
L72000 24800
" />
<path d="M72000 13420
L72707 12712
" />
<path d="M62637 16646
L62637 16637
" />
<path d="M62637 16637
L59400 13400
" />
<path d="M64800 11400
L64800 10600
" />
<path d="M61200 11600
L59400 13400
" />
<path d="M58812 12812
L59400 13400
" />
<path d="M57892 12812
L58812 12812
" />
<path d="M72000 15800
L71600 15800
" />
<path d="M72000 24800
L72000 15800
" />
<path d="M72000 15800
L72000 13420
" />
<path d="M71600 15800
L68600 12800
" />
<path d="M68600 12800
L68600 12200
" />
<path d="M68600 12200
L68000 11600
" />
<path d="M64400 11600
L64600 11600
" />
<path d="M61200 11600
L64400 11600
" />
<path d="M64800 11400
L64800 11600
" />
<path d="M64800 11600
L64400 11600
" />
<path d="M68000 11600
L64800 11600
" />
</g>
<g style="fill:#000000; fill-opacity:0.0; 
stroke:#000000; stroke-width:590.551; stroke-opacity:1; 
stroke-linecap:round; stroke-linejoin:round;">
<path d="M59264 17793
L60657 16400
" />
<path d="M59264 20952
L59264 17793
" />
<path d="M58300 21917
L59264 20952
" />
</g>
<g style="fill:#000000; fill-opacity:1.0; 
stroke:#000000; stroke-width:0; stroke-opacity:1; 
stroke-linecap:round; stroke-linejoin:round;">
<circle cx="60657.9" cy="16400" r="295.276" /> 
</g>
<g style="fill:#000000; fill-opacity:1.0; 
stroke:#000000; stroke-width:590.551; stroke-opacity:1; 
stroke-linecap:round; stroke-linejoin:round;">
</g>
<g style="fill:#000000; fill-opacity:0.0; 
stroke:#000000; stroke-width:590.551; stroke-opacity:1; 
stroke-linecap:round; stroke-linejoin:round;">
<path d="M62600 27326
L62600 27800
" />
<path d="M61673 26400
L62600 27326
" />
<path d="M59800 26400
L61673 26400
" />
<path d="M59000 23800
L59000 25600
" />
<path d="M59000 25600
L59800 26400
" />
<path d="M59600 23200
L59000 23800
" />
<path d="M60800 23200
L59600 23200
" />
<path d="M60012 18103
L60012 20812
" />
<path d="M60103 18012
L60012 18103
" />
<path d="M64744 18012
L60103 18012
" />
<path d="M65637 17119
L64744 18012
" />
<path d="M65637 16646
L65637 17119
" />
<path d="M60800 21600
L60800 23200
" />
<path d="M60012 20812
L60800 21600
" />
</g>
<g style="fill:#000000; fill-opacity:0.0; 
stroke:#000000; stroke-width:196.85; stroke-opacity:1; 
stroke-linecap:round; stroke-linejoin:round;">
<path d="M68188 18411
L67800 18800
" />
<path d="M68188 14252
L68188 18411
" />
<path d="M66629 12693
L68188 14252
" />
<path d="M70064 20351
L67351 20351
" />
<path d="M70351 20064
L70064 20351
" />
<path d="M70351 15415
L70351 20064
" />
<path d="M67351 20351
L66800 19800
" />
<path d="M67629 12693
L70351 15415
" />
<path d="M58800 15000
L57400 16400
" />
<path d="M57400 16400
L57400 24200
" />
<path d="M57400 24200
L58000 24800
" />
</g>
<g style="fill:#000000; fill-opacity:1.0; 
stroke:#000000; stroke-width:0; stroke-opacity:1; 
stroke-linecap:round; stroke-linejoin:round;">
<circle cx="58000" cy="24800" r="98.4252" /> 
</g>
<g style="fill:#000000; fill-opacity:1.0; 
stroke:#000000; stroke-width:196.85; stroke-opacity:1; 
stroke-linecap:round; stroke-linejoin:round;">
</g>
<g style="fill:#000000; fill-opacity:0.0; 
stroke:#000000; stroke-width:196.85; stroke-opacity:1; 
stroke-linecap:round; stroke-linejoin:round;">
<path d="M62800 26200
L62800 25600
" />
<path d="M61800 24600
L61800 24200
" />
<path d="M62800 25600
L61800 24600
" />
<path d="M63629 12693
L66336 15400
" />
</g>
<g style="fill:#000000; fill-opacity:1.0; 
stroke:#000000; stroke-width:0; stroke-opacity:1; 
stroke-linecap:round; stroke-linejoin:round;">
<circle cx="66336" cy="15400" r="98.4252" /> 
</g>
<g style="fill:#000000; fill-opacity:1.0; 
stroke:#000000; stroke-width:196.85; stroke-opacity:1; 
stroke-linecap:round; stroke-linejoin:round;">
</g>
<g style="fill:#000000; fill-opacity:0.0; 
stroke:#000000; stroke-width:196.85; stroke-opacity:1; 
stroke-linecap:round; stroke-linejoin:round;">
<path d="M66400 21200
L63000 21200
" />
<path d="M61800 22400
L61800 23200
" />
<path d="M63000 21200
L61800 22400
" />
</g>
<g >
</g>
</g> 
</svg>
